<svg width="578" height="83" viewBox="0 0 578 83" fill="none" xmlns="http://www.w3.org/2000/svg">
<path d="M6.9584 83H22.1094L28.3224 76.787V52.589H20.2564V73.299L17.5314 76.024H11.5364L8.8114 73.299V9.75199L11.5364 6.918H17.5314L20.2564 9.75199V28.827H28.3224V6.373L22.1094 0.159995H6.9584L0.745402 6.373V76.787L6.9584 83ZM57.4671 83H65.8601L54.9601 0.159995H43.4061L32.7241 83H40.6811L42.7521 65.015H55.3961L57.4671 83ZM43.5151 58.039L49.0741 8.662L54.6331 58.039H43.5151ZM71.7546 83H94.5356V76.024H79.8206V0.159995H71.7546V83ZM100.069 83H122.85V76.024H108.135V0.159995H100.069V83ZM151.192 83H167.978L174.191 76.787V6.373L167.978 0.159995H151.192L144.979 6.373V76.787L151.192 83ZM155.77 76.024L153.045 73.299V9.861L155.77 7.136H163.291L166.125 9.861V73.299L163.291 76.024H155.77ZM182.564 83H190.63V45.504H204.364V38.637H190.63V7.136H205.999V0.159995H182.564V83ZM229.932 83H252.495L258.708 76.787V6.373L252.495 0.159995H229.932V83ZM237.998 76.024V7.136H247.917L250.642 9.861V73.299L247.917 76.024H237.998ZM272.965 83H289.097L295.31 76.787V0.159995H287.244V73.299L284.519 76.024H277.652L274.818 73.299V0.159995H266.752V76.787L272.965 83ZM310.454 83H318.52V6.918H328.548V0.159995H300.317V6.918H310.454V83ZM343.083 83H351.04V54.551L363.466 0.159995H354.855L347.116 42.67L339.377 0.159995H330.766L343.083 54.551V83ZM386.088 83H408.869V76.024H394.154V0.159995H386.088V83ZM414.402 83H438.273V76.024H422.468V44.414H436.093V37.547H422.468V7.136H438.055V0.159995H414.402V83ZM466.643 83H475.036L464.136 0.159995H452.582L441.9 83H449.857L451.928 65.015H464.572L466.643 83ZM452.691 58.039L458.25 8.662L463.809 58.039H452.691ZM486.388 83H502.193L508.406 76.787V40.49H493.691V47.684H500.34V73.299L497.615 76.024H490.966L488.241 73.299V9.861L490.966 7.136H497.615L500.34 9.861V26.865H508.406V6.373L502.193 0.159995H486.388L480.175 6.373V76.787L486.388 83ZM522.367 83H538.499L544.712 76.787V0.159995H536.646V73.299L533.921 76.024H527.054L524.22 73.299V0.159995H516.154V76.787L522.367 83ZM553.207 83H577.078V76.024H561.273V44.414H574.898V37.547H561.273V7.136H576.86V0.159995H553.207V83Z" fill="#D2D4CD"/>
</svg>
