<svg width="511" height="246" viewBox="0 0 511 246" fill="none" xmlns="http://www.w3.org/2000/svg">
<path fill-rule="evenodd" clip-rule="evenodd" d="M83.4949 23.2854L71.0372 42.1499L68.5106 40.3745C59.1995 33.8316 40.758 25.0987 25.7941 19.6807L22.0676 18.3315L34.1978 1.42267L36.2393 2.02102C51.5188 6.49952 70.7909 14.9275 80.9843 21.6337L83.4949 23.2854ZM28.1413 148.872L10.2966 130.341L12.5735 128.264C27.2788 114.848 48.7709 92.3249 66.3896 71.597L68.5885 69.01L84.3795 86.2046L82.6597 88.2246C66.242 107.509 46.7082 129.126 30.301 146.575L28.1413 148.872ZM66.0468 59.2313L53.3673 78.2504L50.8614 76.5358C41.3026 69.9956 22.0978 61.2655 6.66976 56.3799L2.77483 55.1465L15.4527 37.0353L17.5192 37.641C32.7044 42.0918 53.0883 50.26 63.6231 57.5533L66.0468 59.2313ZM243.275 173.26H159.964C182.065 192.855 214.949 208.988 245.99 217.282L251.397 218.726L247.2 222.429C243.048 226.093 237.557 233.086 235.13 237.697L233.965 239.912L231.577 239.162C197.974 228.615 162.503 208.466 137.715 183.925V245.02H112.475V183.099C88.0733 208.189 52.3252 229.704 20.0217 241.206L17.6699 242.043L16.4192 239.883C13.697 235.181 8.17393 228.165 4.03057 224.509L0 220.953L5.14286 219.39C34.7354 210.393 67.1357 193.101 89.63 173.26H8.21544V150.1H112.475V135.56H89.8554V10.2199H236.775V31.5599H114.575V44.0199H225.075V100.2H114.575V113.7H241.715V135.56H137.715V150.1H243.275V173.26ZM97.2754 170.26C96.2466 171.265 95.1914 172.266 94.1115 173.26C71.9854 193.631 39.4501 211.518 9.31478 221.227C8.21157 221.582 7.11158 221.927 6.01543 222.26C6.80428 222.956 7.63453 223.76 8.48254 224.638C12.3861 228.684 16.6659 234.322 19.0154 238.38C51.9343 226.659 88.4411 204.413 112.475 178.754C113.498 177.662 114.499 176.564 115.475 175.46V242.02H134.715V176.5C135.694 177.562 136.695 178.618 137.715 179.665C162.173 204.773 198.282 225.568 232.475 236.3C234.603 232.258 238.82 226.648 242.704 222.607C243.566 221.709 244.412 220.889 245.215 220.18C244.085 219.878 242.952 219.566 241.817 219.243C210.296 210.288 177.25 193.535 155.504 173.26C154.44 172.268 153.404 171.268 152.395 170.26H240.275V153.1H134.715V132.56H238.715V116.7H111.575V97.1999H222.075V47.0199H111.575V28.5599H233.775V13.2199H92.8554V132.56H115.475V153.1H11.2154V170.26H97.2754ZM76.7929 22.5459C66.44 16.3321 49.2676 8.96588 35.3954 4.8999L26.8154 16.8599C27.7741 17.207 28.7474 17.5677 29.7322 17.9408C42.9921 22.9632 58.3255 30.2078 67.7428 36.2504C68.6282 36.8185 69.4613 37.3759 70.2354 37.9199L79.3354 24.1399C78.5441 23.6193 77.6944 23.087 76.7929 22.5459ZM80.3754 86.2799C64.6754 104.721 46.109 125.312 30.171 142.329C29.4807 143.066 28.7954 143.797 28.1154 144.52L14.5954 130.48C15.3154 129.823 16.0513 129.145 16.802 128.446C30.9356 115.294 50.2919 94.9725 66.7127 75.8379C67.3718 75.0698 68.0263 74.3036 68.6754 73.5399L80.3754 86.2799ZM59.4025 58.3809C48.7198 51.7795 30.5936 44.5994 16.6754 40.5199L7.57543 53.5199C8.55443 53.8299 9.54878 54.1553 10.5552 54.4946C24.9375 59.343 41.7745 67.0266 51.3125 73.2313C51.7419 73.5106 52.1565 73.787 52.5554 74.0599L61.9154 60.0199C61.433 59.6859 60.9281 59.3495 60.4025 59.0113C60.077 58.8019 59.7436 58.5917 59.4025 58.3809ZM200.355 80.4199V63.7999H114.575V80.4199H200.355ZM354.535 71.0599H399.54C399.644 70.5455 399.749 70.0282 399.854 69.5086C400.721 65.242 401.619 60.819 402.363 56.5199H333.995V52.7765L315.51 68.1287L313.675 65.2875C305.937 53.3059 287.084 36.4165 270.314 25.0642L266.98 22.8074L286.1 7.16346L287.941 8.37176C304.725 19.3863 324.558 36.2596 333.959 49.1524L333.995 49.2017V34.3999H376.248C372.755 27.4107 367.5 19.3095 362.22 12.7632L359.639 9.56194L380.148 1.64595L381.53 3.07251C389.811 11.6206 398.147 24.1986 401.444 33.5415L401.747 34.3999H432.619C438.603 25.1957 445.795 11.9345 449.694 3.16149L450.724 0.843262L476.221 7.38958L474.284 10.8007C469.801 18.6998 464.616 27.132 459.715 34.3999H504.055V56.5199H429.113C427.447 61.4488 425.68 66.4407 423.987 71.0599H483.775V199.78H354.535V71.0599ZM480.775 74.0599V196.78H357.535V74.0599H401.995C402.251 72.7799 402.518 71.4697 402.788 70.1391C403.689 65.7026 404.635 61.0402 405.407 56.5199C405.58 55.5115 405.743 54.5101 405.895 53.5199H336.995V37.3999H380.935C380.529 36.431 380.078 35.4283 379.587 34.3999C376.399 27.7238 371.539 19.9654 366.491 13.3486C365.848 12.5056 365.202 11.6812 364.555 10.8799L379.375 5.1599C387.393 13.4361 395.411 25.5712 398.566 34.3999C398.582 34.4467 398.599 34.4933 398.615 34.5399L391.855 37.3999H434.235C440.475 28.0399 448.275 13.7399 452.435 4.37991L471.675 9.31991C471.168 10.214 470.652 11.1148 470.128 12.0198C465.691 19.6832 460.715 27.6501 456.087 34.3999C455.381 35.4301 454.682 36.4319 453.995 37.3999H501.055V53.5199H426.955C424.982 59.4417 422.823 65.5484 420.791 71.0599C420.414 72.082 420.042 73.0837 419.675 74.0599H480.775ZM327.255 103.3V188.344C338.818 205.637 360.045 214.096 389.114 215.362C417.356 216.398 474.962 215.619 505.271 213.547L510.24 213.207L508.217 217.758C506.163 222.38 502.932 231.154 502.21 236.688L501.882 239.205L499.345 239.298C470.959 240.34 417.582 240.861 388.886 239.818L388.88 239.818C355.84 238.547 332.305 229.65 315.115 210.387C303.317 220.686 291.03 231.215 278.046 241.75L275.22 244.042L261.816 218.908L264.117 217.407C275.633 209.897 289.628 199.434 302.275 188.879V127.5H266.135V103.3H327.255ZM305.275 190.28C292.275 201.2 277.715 212.12 265.755 219.92L276.155 239.42C276.948 238.777 277.739 238.133 278.526 237.49C290.605 227.627 302.089 217.776 313.156 208.115C313.911 207.456 314.664 206.797 315.415 206.14C315.415 206.14 315.415 206.14 315.415 206.14C316.058 206.914 316.711 207.671 317.374 208.413C333.859 226.871 356.501 235.57 388.995 236.82C417.595 237.86 470.895 237.34 499.235 236.3C499.867 231.456 502.205 224.564 504.176 219.633C504.638 218.477 505.08 217.429 505.475 216.54C504.389 216.614 503.267 216.687 502.113 216.758C470.969 218.673 416.323 219.363 388.995 218.36C359.095 217.06 336.475 208.22 324.255 189.24V106.3H269.135V124.5H305.275V190.28ZM378.735 107.46H458.795V91.8799H378.735V107.46ZM378.735 143.08H458.795V127.5H378.735V143.08ZM378.735 178.96H458.795V163.12H378.735V178.96ZM286.295 10.8799C302.935 21.7999 322.435 38.4399 331.535 50.9199L316.195 63.6599C315.673 62.8507 315.103 62.0219 314.49 61.1763C306.127 49.6362 289.698 34.9605 274.567 24.3521C273.705 23.7477 272.847 23.1565 271.995 22.5799L286.295 10.8799ZM203.355 60.7999H111.575V83.4199H203.355V60.7999ZM461.795 110.46V88.8799H375.735V110.46H461.795ZM461.795 146.08V124.5H375.735V146.08H461.795ZM461.795 181.96V160.12H375.735V181.96H461.795Z" fill="#BC9244"/>
</svg>
