<svg width="400" height="225" viewBox="0 0 400 225" fill="none" xmlns="http://www.w3.org/2000/svg">
<path d="M231.39 104.21C229.472 104.132 227.582 103.718 225.808 102.985C222.945 101.769 220.278 100.139 217.891 98.1475L217.862 98.1244C215.238 96.0991 212.929 93.6978 211.009 90.9986C209.305 88.6901 208.347 85.9179 208.262 83.0517C208.308 80.9785 208.723 78.9299 209.486 77.0011C210.512 74.4413 211.827 72.0071 213.408 69.7461C215.157 67.1025 217.262 64.711 219.663 62.6384C221.871 60.659 224.719 59.5394 227.687 59.4844C229.688 59.5582 231.657 60.0083 233.491 60.8111C236.293 62.0742 238.898 63.7337 241.226 65.7385C243.838 67.6798 246.189 69.9491 248.22 72.4902C250.097 74.857 251.125 77.7839 251.138 80.8026C251.069 82.784 250.614 84.733 249.798 86.5407C248.682 89.0544 247.292 91.4382 245.655 93.6492C243.931 96.3553 241.842 98.8112 239.447 100.948C237.254 102.986 234.386 104.148 231.39 104.21ZM221.4 93.6783C223.332 95.299 225.483 96.6406 227.789 97.6637C228.931 98.155 230.149 98.4489 231.39 98.5326C233.019 98.4603 234.563 97.7906 235.728 96.6518C237.735 94.8481 239.483 92.7769 240.924 90.4966L240.983 90.4111C242.379 88.533 243.571 86.5112 244.538 84.3802C245.065 83.2557 245.375 82.0418 245.45 80.8024C245.435 79.0282 244.817 77.3117 243.697 75.9336C241.953 73.7733 239.939 71.8452 237.704 70.1962C235.795 68.5405 233.667 67.1563 231.378 66.0826C230.215 65.5529 228.963 65.2408 227.687 65.1618C226.057 65.225 224.504 65.8741 223.316 66.9895C221.324 68.7202 219.577 70.7146 218.126 72.9173C216.802 74.809 215.692 76.842 214.818 78.9787C214.293 80.2754 213.999 81.6538 213.95 83.0515C214.046 84.7729 214.658 86.4257 215.706 87.7963C217.305 90.0246 219.223 92.0064 221.4 93.6783Z" fill="#BC9244"/>
<path d="M317.819 50.377C316.048 50.3307 314.3 49.9732 312.653 49.3207C310.711 48.6107 308.439 47.116 305.711 44.7529C303.33 42.9623 301.26 40.7926 299.585 38.3307C298.052 36.1803 297.189 33.626 297.105 30.9882C297.127 29.026 297.524 27.0859 298.276 25.2726C299.232 23.034 300.39 20.8868 301.736 18.8576L301.786 18.782C303.336 16.4553 305.172 14.3319 307.252 12.4616C309.198 10.622 311.759 9.56968 314.439 9.50879C316.332 9.55933 318.195 9.99403 319.914 10.7864C322.328 11.9419 324.592 13.3877 326.654 15.0917C332.502 19.5922 335.475 24.2417 335.475 28.8991C335.414 30.7314 335.025 32.5381 334.327 34.2341C333.406 36.5343 332.226 38.7227 330.81 40.7572L330.731 40.8701C329.068 43.1694 327.202 45.3154 325.155 47.2823C323.208 49.2301 320.575 50.3407 317.819 50.377ZM306.509 21.9452C305.367 23.6676 304.378 25.487 303.555 27.3823C303.074 28.5251 302.816 29.7489 302.794 30.9882C302.889 32.5146 303.425 33.9807 304.336 35.21C305.683 37.1689 307.344 38.8924 309.254 40.3107L309.383 40.4168C312.113 42.7887 313.733 43.6693 314.611 43.9903C315.633 44.4055 316.718 44.6453 317.819 44.6996C319.13 44.6495 320.369 44.0878 321.27 43.1352C323.047 41.4207 324.669 39.5519 326.116 37.5511C327.27 35.8921 328.237 34.1115 329.001 32.2414C329.455 31.1811 329.72 30.0503 329.787 28.8993C329.787 26.0942 327.559 22.9576 323.166 19.5767C321.475 18.172 319.624 16.9701 317.652 15.9957C316.645 15.5161 315.553 15.2411 314.439 15.1866C313.14 15.2608 311.915 15.8118 310.998 16.7335C309.291 18.2782 307.783 20.0289 306.509 21.9452Z" fill="#BC9244"/>
<path d="M353.235 47.8065C351.429 47.7545 349.649 47.3578 347.992 46.6378C345.47 45.491 343.118 44.0014 341.005 42.2113L340.92 42.1413C338.704 40.2878 336.714 38.1807 334.991 35.8635C333.361 33.776 332.439 31.2239 332.361 28.578C332.39 26.704 332.748 24.8496 333.421 23.0997C334.394 20.7195 335.657 18.4686 337.184 16.398C338.651 14.0437 340.443 11.9074 342.507 10.0519C344.503 8.18997 347.123 7.13698 349.855 7.09827C351.661 7.15057 353.439 7.54672 355.096 8.26541C357.618 9.41367 359.969 10.9032 362.083 12.6919C367.918 17.1814 370.891 21.8308 370.891 26.4884C370.83 28.3214 370.442 30.1289 369.743 31.8253C368.822 34.1246 367.643 36.3124 366.229 38.3469L366.182 38.4146C364.528 40.8299 362.58 43.031 360.383 44.9674C358.422 46.7437 355.883 47.7521 353.235 47.8065ZM344.58 37.7948C346.252 39.2296 348.11 40.4312 350.106 41.3666C351.093 41.8128 352.154 42.0713 353.236 42.129C354.538 42.0636 355.774 41.5307 356.714 40.6285C358.534 39.0102 360.147 37.1749 361.518 35.164C362.678 33.4976 363.65 31.7088 364.418 29.8299C364.872 28.7699 365.138 27.6391 365.203 26.4882C365.203 23.6827 362.976 20.5465 358.583 17.1663C356.889 15.7097 355.005 14.4886 352.983 13.5362C351.997 13.091 350.936 12.833 349.855 12.7754C348.503 12.8246 347.219 13.3765 346.254 14.3227C344.583 15.8366 343.134 17.5781 341.95 19.4958L341.886 19.5924C340.631 21.2822 339.582 23.1153 338.761 25.0529C338.32 26.1774 338.079 27.3703 338.049 28.5776C338.141 30.0278 338.684 31.4131 339.603 32.54C341.052 34.4787 342.722 36.2422 344.58 37.7948Z" fill="#BC9244"/>
<path d="M284.516 216.213C284.433 216.213 284.354 216.211 284.274 216.207L283.526 216.213C283.109 216.213 282.671 216.193 282.191 216.152C272.369 215.844 263.759 213.572 256.598 209.398C249.886 205.486 244.73 199.212 241.228 190.706C240.089 192.444 238.816 194.209 237.411 196.001C235.177 198.943 232.624 201.629 229.798 204.01L229.699 204.085C226.952 206.093 224.017 207.829 220.934 209.27C217.65 210.814 214.243 212.079 210.747 213.053C207.168 214.055 203.529 214.831 199.853 215.378C199.244 215.469 198.615 215.554 197.959 215.633L197.905 216.213H195.313C194.276 216.213 193.187 216.19 191.986 216.141C190.898 216.19 189.936 216.213 189.048 216.213C187.224 216.187 185.413 215.905 183.667 215.376C183.564 215.346 183.463 215.312 183.363 215.274C180.201 214.757 177.097 213.932 174.096 212.813C168.156 210.597 162.897 206.875 158.837 202.013C154.851 197.241 151.717 191.119 149.523 183.818C147.177 175.488 145.762 166.925 145.304 158.284C144.551 148.521 143.873 138.337 143.29 128.045C142.702 117.701 142.052 107.277 141.36 97.0632C140.663 86.8087 139.879 76.6626 139.03 66.9072C138.176 57.1239 137.152 47.705 135.985 38.913L135.961 38.5403C135.951 34.8971 136.687 31.2903 138.123 27.9408C139.651 24.4675 141.441 21.1151 143.477 17.9124C145.087 15.268 146.841 12.7141 148.732 10.2626C150.033 8.62734 152.054 6.45543 154.582 6.45543C155.746 6.4404 156.887 6.78537 157.847 7.44298C158.807 8.10059 159.539 9.03862 159.944 10.1283L160.055 10.3948L160.111 10.678C161.169 16.2503 161.935 21.8739 162.406 27.5258C162.945 33.6564 163.38 39.7427 163.701 45.617L169.014 148.791C169.621 160.393 172.442 169.108 177.399 174.692C181.711 179.553 187.424 182.195 194.859 182.765C196.461 182.649 197.991 182.467 199.528 182.211C202.239 181.764 204.918 181.147 207.551 180.364C209.941 179.659 212.267 178.752 214.502 177.651C216.371 176.744 218.119 175.608 219.707 174.269L219.825 174.173C221.765 172.536 223.379 170.55 224.585 168.318C226.346 165.249 227.87 162.05 229.143 158.749C230.622 154.942 231.908 151.064 232.997 147.128C234.158 142.968 235.231 138.765 236.185 134.639C236.4 133.576 236.763 132.548 237.266 131.586C237.961 130.399 239.006 129.455 240.258 128.882C241.769 128.208 243.389 127.811 245.041 127.711C246.791 127.543 249.184 127.457 252.157 127.457C257.103 127.457 258.865 130.584 258.865 133.51C258.805 135.173 258.6 136.828 258.253 138.455C257.873 140.447 257.443 142.676 256.961 145.143C256.489 147.552 255.942 150.123 255.332 152.783C254.782 155.176 254.303 157.38 253.906 159.346C254.849 167.442 257.967 173.211 263.43 176.969C269.086 180.864 276.963 182.856 286.844 182.889C294.601 182.872 302.33 182.58 309.797 182.02C317.546 181.443 325.108 180.587 332.272 179.475C339.031 178.444 345.733 177.07 352.351 175.356C357.421 174.064 362.381 172.377 367.187 170.311C367.227 169.93 367.268 169.521 367.308 169.084C367.407 167.982 367.457 166.931 367.457 165.969C367.452 163.738 367.251 161.511 366.857 159.314C366.68 158.324 366.462 157.353 366.204 156.403C364.351 158.872 362.081 161.002 359.498 162.697C355.388 165.473 349.977 166.88 343.415 166.88C338.605 166.856 333.814 166.263 329.144 165.114C324.253 163.957 319.619 161.906 315.476 159.065C311.23 156.1 307.716 152.209 305.202 147.687C302.5 142.941 301.129 137.035 301.129 130.135C301.144 122.469 302.479 114.864 305.077 107.65C307.525 100.643 310.992 94.0345 315.368 88.0358C319.347 82.5492 324.24 77.7846 329.833 73.9491C335.384 70.2157 341.037 68.3227 346.635 68.3227C353.467 68.3517 360.075 70.76 365.318 75.1321C371.028 79.8233 375.796 85.5505 379.372 92.0115C383.421 99.2538 386.493 106.998 388.509 115.044V115.045C390.692 123.437 391.804 132.07 391.819 140.74C391.721 147.821 391.119 154.885 390.018 161.881C388.74 170.358 386.587 178.68 383.594 186.715C382.616 189.36 381.326 191.878 379.751 194.218C377.914 196.963 376.032 198.72 373.996 199.591C360.65 205.602 346.586 209.878 332.149 212.313C317.273 214.806 302.219 216.101 287.135 216.186L287.133 216.203L284.516 216.213ZM185.328 209.945C186.535 210.311 187.787 210.51 189.048 210.535C189.882 210.535 190.798 210.512 191.85 210.464L191.974 210.458L192.098 210.463C192.311 210.472 192.52 210.48 192.725 210.488L192.728 210.453L195.075 210.232C196.525 210.096 197.813 209.942 199.012 209.763C202.453 209.251 205.858 208.525 209.207 207.587C212.396 206.7 215.504 205.547 218.499 204.14C221.229 202.864 223.831 201.33 226.267 199.558C228.739 197.454 230.974 195.087 232.933 192.5C235.161 189.704 237.145 186.724 238.864 183.59L239.668 182.092H244.273L244.893 184.092C247.88 193.736 252.784 200.601 259.467 204.495C265.818 208.198 273.549 210.211 282.445 210.48L282.613 210.49C282.865 210.512 283.111 210.528 283.353 210.534L284.509 210.526C300.144 210.566 315.754 209.293 331.175 206.72C345.154 204.363 358.771 200.223 371.693 194.401C372.428 194.086 373.539 193.279 375.019 191.068C376.344 189.102 377.429 186.985 378.253 184.763C381.112 177.093 383.169 169.149 384.39 161.057C385.451 154.334 386.033 147.545 386.131 140.74C386.116 132.548 385.064 124.391 383.001 116.462C381.11 108.903 378.227 101.626 374.428 94.8196C371.206 88.9818 366.907 83.8046 361.758 79.5608C357.532 75.9835 352.175 74.0136 346.634 73.9997C342.188 73.9997 337.605 75.5664 333.01 78.6571C327.957 82.1299 323.537 86.4421 319.945 91.4062C315.9 96.9571 312.696 103.072 310.435 109.554C308.055 116.156 306.831 123.118 306.816 130.134C306.816 136.039 307.937 141 310.147 144.881C312.24 148.659 315.167 151.912 318.707 154.393C322.276 156.836 326.267 158.6 330.478 159.594C334.711 160.637 339.054 161.177 343.414 161.202C348.819 161.202 353.158 160.122 356.309 157.994C359.185 156.193 361.516 153.646 363.055 150.626L363.888 148.846L369.71 149.295L370.366 150.937C371.311 153.321 372.011 155.795 372.456 158.32C372.908 160.845 373.139 163.404 373.144 165.969C373.144 167.099 373.086 168.32 372.972 169.597C372.862 170.796 372.748 171.814 372.634 172.63L372.42 174.158L371.019 174.81C365.469 177.329 359.705 179.349 353.796 180.847C346.989 182.61 340.097 184.025 333.146 185.085C325.831 186.22 318.118 187.094 310.22 187.681C302.618 188.251 294.751 188.549 286.84 188.567C275.775 188.529 266.817 186.2 260.201 181.643C253.291 176.891 249.254 169.446 248.201 159.52L248.156 159.09L248.24 158.667C248.664 156.541 249.185 154.135 249.787 151.515C250.382 148.916 250.918 146.404 251.377 144.053C251.86 141.595 252.288 139.377 252.663 137.399C252.944 136.119 253.115 134.818 253.176 133.51C253.177 133.425 253.171 133.339 253.159 133.255C252.834 133.162 252.495 133.121 252.156 133.135C249.365 133.135 247.155 133.211 245.587 133.362C244.631 133.402 243.688 133.604 242.8 133.961C242.59 134.048 242.4 134.175 242.239 134.335C242.003 134.829 241.832 135.352 241.732 135.89C240.752 140.125 239.659 144.409 238.475 148.652C237.335 152.772 235.988 156.832 234.439 160.817C233.059 164.389 231.408 167.851 229.501 171.172C227.942 174.011 225.864 176.533 223.374 178.608C221.442 180.236 219.316 181.621 217.044 182.73C214.517 183.976 211.887 185.004 209.183 185.802C206.322 186.654 203.409 187.325 200.463 187.811C198.704 188.104 196.882 188.317 195.048 188.443L194.848 188.457L194.649 188.443C185.687 187.802 178.45 184.442 173.14 178.457C167.308 171.887 164.008 162.005 163.332 149.085L158.02 45.9172C157.703 40.1137 157.272 34.0899 156.739 28.0219C156.23 22.2406 155.519 16.9451 154.625 12.2723C154.089 12.7226 153.606 13.2326 153.186 13.7923C151.429 16.0756 149.8 18.4534 148.304 20.9151C146.421 23.8732 144.765 26.9696 143.35 30.1776C142.242 32.7643 141.664 35.5459 141.65 38.3589C142.816 47.1794 143.841 56.6177 144.697 66.4148C145.548 76.2065 146.336 86.3885 147.035 96.6791C147.729 106.914 148.379 117.359 148.969 127.724C149.55 137.978 150.226 148.123 150.977 157.877C151.406 166.103 152.746 174.255 154.972 182.186C156.944 188.749 159.714 194.197 163.206 198.378C166.644 202.489 171.095 205.636 176.121 207.507C178.857 208.524 181.688 209.264 184.571 209.719L184.95 209.808C185.079 209.849 185.204 209.895 185.328 209.945ZM349.693 140.847C345.925 140.861 342.169 140.399 338.517 139.472C335.085 138.611 331.795 137.26 328.75 135.46C325.915 133.796 323.399 131.643 321.317 129.102C319.304 126.666 317.962 123.748 317.426 120.636L317.377 120.339L317.391 120.039C317.557 117.257 318.28 114.537 319.517 112.038C320.767 109.434 322.379 107.02 324.305 104.865C326.292 102.644 328.647 100.782 331.268 99.3602C334.003 97.8596 337.074 97.0767 340.194 97.0849C344.016 97.0866 347.736 98.3191 350.8 100.599C353.935 102.916 356.626 105.776 358.746 109.044C360.999 112.47 362.852 116.141 364.272 119.985C365.685 123.718 366.657 127.602 367.167 131.56L367.334 132.932L366.354 133.909C364.174 136.05 361.604 137.754 358.782 138.93H358.781C355.914 140.18 352.822 140.832 349.693 140.848V140.847ZM323.091 120.004C323.499 122.042 324.412 123.946 325.747 125.541C327.41 127.561 329.417 129.271 331.677 130.592C334.253 132.111 337.036 133.25 339.938 133.974C343.126 134.782 346.404 135.184 349.693 135.17C352.052 135.154 354.382 134.657 356.542 133.712C358.269 132.989 359.878 132.015 361.319 130.822C360.819 127.798 360.022 124.83 358.94 121.962C357.672 118.523 356.015 115.24 354.002 112.175C352.258 109.476 350.041 107.112 347.459 105.195C345.369 103.615 342.817 102.761 340.195 102.763C338.026 102.75 335.89 103.295 333.993 104.345C331.945 105.455 330.104 106.91 328.551 108.644C326.982 110.398 325.668 112.365 324.65 114.485C323.79 116.212 323.262 118.083 323.091 120.004V120.004Z" fill="#BC9244"/>
<path d="M47.6265 215.731C34.4751 215.731 24.7864 212.236 18.8293 205.345C12.9761 198.579 10.0078 188.25 10.0078 174.647C10.026 169.375 10.5856 164.12 11.6778 158.962C12.7768 153.701 14.2067 148.514 15.959 143.432C17.7097 138.355 19.7372 133.377 22.0324 128.521C23.8575 124.662 25.731 120.966 27.6201 117.498C27.3106 117.319 27.0068 117.136 26.7087 116.948C24.3492 115.463 23.8536 113.6 23.8536 112.298C23.9771 110.072 24.358 107.867 24.9887 105.728C25.7444 102.795 26.6626 99.9059 27.7391 97.0742C28.7365 94.3808 29.9231 91.7609 31.2901 89.2343C32.4903 87.0545 34.2073 84.5508 36.8393 84.5508C39.4482 84.7119 42.0156 85.2799 44.4483 86.2341C47.4468 87.269 50.7399 88.5664 54.2387 90.0914C57.7457 91.6261 61.2869 93.3659 64.7674 95.2645C67.8996 96.9521 70.9413 98.8019 73.8802 100.806C78.861 104.364 83.637 108.199 88.1857 112.294C92.056 115.783 95.4022 119.812 98.1209 124.255C100.766 128.728 102.673 133.598 103.77 138.676C105.032 144.853 105.621 151.148 105.529 157.452C105.515 161.181 105.207 164.903 104.608 168.584C104.01 172.357 103.113 176.077 101.926 179.709C100.782 183.202 99.3841 186.606 97.7432 189.895C96.2135 193 94.3437 195.926 92.1681 198.62L92.1003 198.7C90.0498 200.945 87.768 202.967 85.2925 204.734C82.2379 206.929 78.9522 208.785 75.4938 210.269C71.4576 211.998 67.2587 213.321 62.9594 214.219C57.9165 215.263 52.7767 215.77 47.6265 215.731ZM29.5512 112.013C29.613 112.061 29.6772 112.105 29.7436 112.146C30.6917 112.741 31.6798 113.27 32.7008 113.73L35.5321 115.01L34.0045 117.712C31.7005 121.785 29.4031 126.238 27.1769 130.945C24.9704 135.613 23.0213 140.398 21.3384 145.279C19.6637 150.135 18.2972 155.091 17.2468 160.119C16.234 164.896 15.7144 169.764 15.6962 174.647C15.6962 186.849 18.199 195.929 23.1353 201.636C27.964 207.221 36.2037 210.053 47.6267 210.053C52.3715 210.092 57.1072 209.629 61.7541 208.67C65.6819 207.853 69.5184 206.647 73.2068 205.07C76.2834 203.754 79.2071 202.107 81.9259 200.158C84.0583 198.641 86.0272 196.907 87.8009 194.984C89.6942 192.627 91.3223 190.069 92.6557 187.357C94.1727 184.316 95.465 181.169 96.5223 177.94C97.6152 174.594 98.4413 171.167 98.9925 167.691C99.5437 164.305 99.8279 160.882 99.8424 157.452C99.9336 151.565 99.3897 145.685 98.22 139.914C97.2557 135.429 95.576 131.128 93.2449 127.176C90.8075 123.202 87.8095 119.599 84.343 116.478C79.9684 112.543 75.3761 108.857 70.5876 105.435C67.8294 103.559 64.9757 101.827 62.038 100.246C58.7035 98.4268 55.3115 96.7602 51.9584 95.2929C48.6001 93.8287 45.4474 92.586 42.5915 91.6007C40.9134 90.9632 39.1698 90.5131 37.3925 90.2585C36.9635 90.7909 36.5887 91.3647 36.2737 91.9714C35.0372 94.2623 33.9636 96.6373 33.0611 99.0786C32.0588 101.714 31.2039 104.403 30.5003 107.133C30.0423 108.729 29.7247 110.362 29.5512 112.013ZM52.6171 185.841C48.0213 185.962 43.452 185.109 39.2101 183.34C35.8153 181.887 32.7702 179.727 30.2781 177.005C28.1309 174.621 26.4882 171.828 25.4486 168.794C24.5366 166.179 24.0524 163.434 24.0146 160.665C24.0978 157.128 24.7788 153.63 26.029 150.319C27.3823 146.543 29.0689 142.894 31.0688 139.416C33.1153 135.83 35.385 132.376 37.8647 129.074C40.1012 126.065 42.5121 123.19 45.0851 120.462L46.4806 119.001L48.3212 119.837C53.4394 122.188 58.3933 124.879 63.1493 127.894C68.0843 130.986 72.7408 134.501 77.0664 138.398C81.0573 141.956 84.5916 145.995 87.5885 150.42C90.5203 154.844 92.0062 159.21 92.0062 163.398C92.0062 166.046 90.9504 168.806 88.8685 171.601L88.8677 171.602C86.6134 174.474 83.8201 176.881 80.6438 178.688C76.7923 180.917 72.6667 182.637 68.3709 183.804C63.2394 185.208 57.9375 185.893 52.6171 185.841ZM47.8201 125.87C46.0703 127.813 44.2583 130.029 42.4153 132.481C40.0785 135.593 37.9397 138.847 36.0114 142.226C34.1786 145.412 32.6325 148.754 31.3914 152.212C30.3589 154.916 29.788 157.774 29.7027 160.666C29.7413 162.824 30.1269 164.962 30.8446 166.999C31.6445 169.31 32.9035 171.437 34.5461 173.252C36.5063 175.367 38.8943 177.042 41.5519 178.166C45.0589 179.6 48.8291 180.28 52.6171 180.163C57.4087 180.215 62.1844 179.603 66.8075 178.345C70.6251 177.313 74.2926 175.792 77.718 173.819C80.2549 172.391 82.4913 170.488 84.304 168.213C85.6403 166.419 86.318 164.799 86.318 163.398C86.318 160.343 85.1499 157.031 82.8462 153.555C80.11 149.523 76.8847 145.844 73.2436 142.602C69.1629 138.927 64.7702 135.613 60.115 132.696C56.1507 130.188 52.0456 127.909 47.8201 125.87Z" fill="#BC9244"/>
<path d="M74.351 64.8406C72.5455 64.7878 70.7666 64.3915 69.1098 63.6732C66.5877 62.5251 64.2361 61.0355 62.1216 59.2463L62.0351 59.1753C59.8193 57.3211 57.8293 55.2135 56.1061 52.8959C54.4752 50.8085 53.5541 48.2562 53.4766 45.6103C53.505 43.7366 53.8635 41.8825 54.5355 40.1328C55.5085 37.7528 56.7727 35.502 58.2993 33.4319C59.7662 31.0767 61.5584 28.9398 63.6232 27.0842C65.6194 25.2227 68.2387 24.1702 70.9702 24.1318C72.7757 24.1842 74.5545 24.5801 76.2114 25.2982C78.7332 26.4463 81.0845 27.9358 83.1989 29.7246C89.0338 34.2149 92.0064 38.864 92.0064 43.5206C91.9457 45.3537 91.5573 47.1612 90.8594 48.8579C89.9377 51.1571 88.7584 53.3449 87.344 55.3795L87.2963 55.4483C85.6425 57.8628 83.6954 60.0634 81.4995 62C79.5379 63.7765 76.9991 64.7854 74.351 64.8406ZM65.6954 54.8291C67.3683 56.2631 69.2276 57.465 71.2228 58.4021C72.2094 58.8469 73.2702 59.105 74.3513 59.1633C75.6543 59.0972 76.8897 58.5641 77.8305 57.6619C79.6488 56.0432 81.2616 54.2083 82.6329 52.1982C83.7925 50.5315 84.7653 48.7427 85.5338 46.864C85.9873 45.8035 86.2527 44.6724 86.3182 43.5211C86.3182 40.7167 84.0908 37.5805 79.6977 34.2C78.004 32.7431 76.1204 31.5219 74.0982 30.5697C73.1116 30.1251 72.0507 29.8674 70.9698 29.8097C69.6184 29.8585 68.3342 30.41 67.3694 31.3558C65.6981 32.8699 64.2493 34.6118 63.0657 36.53L63.0015 36.6263C61.7465 38.3159 60.6973 40.1486 59.8761 42.0856C59.4352 43.2102 59.1943 44.403 59.1643 45.6103C59.2553 47.0601 59.7985 48.4452 60.7176 49.5715C62.1666 51.5111 63.8371 53.2756 65.6954 54.8291Z" fill="#BC9244"/>
<path d="M38.9326 67.411C37.1618 67.3641 35.4132 67.006 33.767 66.3532C31.8288 65.6466 29.5561 64.152 26.8247 61.7861C24.4438 59.9959 22.3743 57.8269 20.699 55.366C19.1655 53.2148 18.3026 50.6595 18.2188 48.0206C18.2399 46.0591 18.6368 44.1197 19.3881 42.3071C20.344 40.0676 21.5026 37.9198 22.8495 35.8904L22.8988 35.816C24.4487 33.4889 26.2852 31.3651 28.365 29.4944C30.3111 27.6551 32.8724 26.6031 35.5518 26.5427C37.4454 26.5926 39.309 27.0272 41.0287 27.8202C43.4429 28.9754 45.7063 30.4214 47.7683 32.1259C53.6155 36.6259 56.5881 41.275 56.5881 45.9316C56.5273 47.7647 56.1385 49.5721 55.4402 51.2685C54.5192 53.5682 53.3397 55.7562 51.9244 57.7904L51.8447 57.904C50.1816 60.2036 48.3151 62.3496 46.2677 64.3162C44.3212 66.2641 41.6886 67.3749 38.9326 67.411ZM27.6227 38.9795C26.4796 40.7013 25.4912 42.5205 24.6691 44.416C24.188 45.5583 23.9293 46.7817 23.9069 48.0206C24.0021 49.5475 24.5379 51.0142 25.4496 52.2439C26.7963 54.202 28.4577 55.9247 30.3667 57.3426L30.4967 57.4491C33.2288 59.8233 34.8465 60.7025 35.7225 61.0217C36.7446 61.4377 37.8298 61.6784 38.9322 61.7334C40.2432 61.6834 41.482 61.1217 42.3821 60.169C44.1603 58.4548 45.7822 56.5863 47.2287 54.5854C48.3822 52.9263 49.3496 51.1457 50.1134 49.2757C50.5678 48.2149 50.8339 47.0834 50.9 45.9316C50.9 43.1273 48.6725 39.9911 44.2795 36.6098C42.5884 35.205 40.7379 34.0033 38.766 33.0296C37.7592 32.5493 36.6666 32.2742 35.5521 32.2205C34.2537 32.294 33.0285 32.8447 32.1125 33.7662C30.405 35.3114 28.8968 37.0626 27.6227 38.9795Z" fill="#BC9244"/>
</svg>
