<svg width="1163" height="220" viewBox="0 0 1163 220" fill="none" xmlns="http://www.w3.org/2000/svg">
<path fill-rule="evenodd" clip-rule="evenodd" d="M17.7791 25.2176L21.5337 25.3659C39.5821 26.0783 75.7835 25.1252 101.45 21.7997C112.272 20.2533 124.7 18.0527 135.87 15.6166C147.109 13.1658 156.871 10.5189 162.47 8.11949L164.441 7.27481L180.935 28.7486L176.966 29.8311C174.528 30.4959 172.241 31.0973 170.156 31.6455C167.646 32.3055 165.429 32.8882 163.598 33.4114L163.566 33.4205L163.534 33.4288C151.992 36.4298 134.579 39.8533 117.984 42.4551V83.2695H181.264C186.424 83.2695 194.95 82.7968 199.905 82.3248L202.928 82.037V107.957L199.917 107.683C194.692 107.208 187.606 106.737 181.743 106.737H117.569C116.005 128.33 110.906 147.026 101.173 163.328C91.0465 180.286 76.0133 194.472 55.1153 206.622L53.5942 207.506L29.294 190.588L33.6665 188.568C52.2461 179.984 66.2336 169.193 75.9384 155.445C85.1812 142.351 90.6651 126.396 92.3806 106.737H24.2961C16.7386 106.737 8.68359 107.211 2.99021 107.685L0 107.934V82.0619L3.0001 82.3228C8.44495 82.7962 16.7376 83.2695 23.8176 83.2695H93.08V45.5193C69.5911 47.6925 43.9265 48.3625 26.2462 48.5921L24.1041 48.6199L17.7791 25.2176ZM93.08 42.7465C94.004 42.6605 94.9245 42.5722 95.8409 42.4814V86.0305H23.8176C17.7556 86.0305 10.8405 85.6892 5.52185 85.2948C4.54229 85.2222 3.61688 85.1478 2.76093 85.0733V104.934C3.62978 104.861 4.5534 104.789 5.52185 104.718C10.9544 104.321 17.7976 103.976 24.2961 103.976H95.3624C95.3002 104.904 95.23 105.825 95.1518 106.737C91.7147 146.883 72.8396 172.61 37.6989 189.711C36.7526 190.172 35.7944 190.626 34.8245 191.074L53.7276 204.235C94.8838 180.307 112.351 148.722 114.983 103.976H181.743C186.733 103.976 192.556 104.31 197.406 104.698C198.37 104.775 199.295 104.854 200.167 104.934V85.0733C199.335 85.1526 198.404 85.2319 197.406 85.309C192.38 85.6973 185.656 86.0305 181.264 86.0305H115.223V40.0886C132.451 37.4566 150.875 33.8674 162.839 30.7567C164.68 30.2308 166.954 29.6326 169.503 28.9622C170.729 28.6397 172.019 28.3005 173.355 27.9446C174.295 27.6938 175.259 27.4348 176.239 27.1675L163.557 10.6572C151.833 15.6821 123.597 21.4248 101.823 24.5354C77.2837 27.7164 43.2511 28.7399 24.3106 28.2203C23.3049 28.1928 22.3417 28.1608 21.4248 28.1246L26.2104 45.8314C43.9363 45.6012 69.6355 44.928 93.08 42.7465ZM312.978 44.6039L313.49 47.5051C314.19 51.4728 315.364 56.6499 316.795 62.6129C318.138 67.5341 320.728 76.8219 323.984 88.3458C357.219 81.9766 396.01 74.4377 403.918 72.5796C406.899 71.8342 410.371 70.9496 412.426 69.922L413.897 69.1866L429.151 79.864L428.1 81.9893C417.905 102.623 393.071 136.37 376.596 152.603L375.198 153.98L352.696 142.888L355.873 140.165C368.98 128.93 384.346 110.64 393.25 96.828C381.384 99.1183 355.713 104.227 329.779 109.447C339.19 143.323 350.343 183.365 353.371 193.617C354.804 198.156 357.187 205.541 358.614 209.822L359.549 212.627L333.34 219.411L332.92 216.333C332.217 211.178 331.045 205.085 329.41 199.245C326.957 190.751 319.345 162.802 311.676 134.641C309.815 127.806 307.95 120.958 306.154 114.372C298.481 115.92 291.207 117.372 284.744 118.663C273.13 120.982 264.138 122.777 260.164 123.661L257.571 124.237L251.262 100.263L254.582 100.026C261.139 99.5578 267.005 98.6213 274.185 97.4246L274.217 97.4193L274.249 97.4148C276.267 97.1265 281.244 96.211 288.189 94.9336C291.765 94.2757 295.863 93.5219 300.347 92.7084C299.975 91.3927 299.613 90.1085 299.26 88.8597C296.569 79.3308 294.459 71.8615 293.303 68.198L293.289 68.1547L293.277 68.111C291.639 62.2635 289.807 57.7328 287.825 54.4303L285.897 51.2167L312.978 44.6039ZM303.077 92.2145C303.324 93.0914 303.576 93.9815 303.832 94.8838C302.908 95.0504 301.998 95.215 301.102 95.3775C296.591 96.1955 292.45 96.9572 288.825 97.6238C281.796 98.9167 276.71 99.8522 274.639 100.148C268.472 101.176 263.188 102.027 257.573 102.55C256.653 102.636 255.723 102.713 254.779 102.78L259.565 120.965C259.565 120.965 259.565 120.965 259.565 120.965C263.566 120.076 272.617 118.269 284.27 115.942C291.432 114.512 299.577 112.885 308.139 111.155C310.143 118.505 312.247 126.23 314.346 133.937C322.018 162.109 329.624 190.037 332.067 198.492C333.458 203.463 334.52 208.598 335.251 213.213C335.399 214.152 335.534 215.069 335.656 215.96L355.995 210.695C355.733 209.911 355.44 209.023 355.126 208.068C353.719 203.781 351.905 198.143 350.73 194.424C347.7 184.166 336.491 143.923 327.065 109.994C326.816 109.1 326.569 108.211 326.324 107.326C327.228 107.144 328.133 106.962 329.038 106.78C357.01 101.15 384.769 95.6297 395.24 93.6349C396.883 93.322 398.1 93.0958 398.826 92.9696C398.251 93.9831 397.628 95.0348 396.961 96.1188C388.636 109.634 373.405 128.165 359.914 140.29C359.16 140.968 358.411 141.625 357.67 142.261L374.658 150.636C390.93 134.604 415.575 101.105 425.625 80.7663L413.661 72.3915C411.268 73.5879 407.44 74.545 404.568 75.2628C396.433 77.1771 355.755 85.0733 322.017 91.5339C318.428 78.852 315.556 68.563 314.121 63.2988C312.986 58.5731 312.002 54.2954 311.284 50.7016C311.093 49.7462 310.921 48.8392 310.771 47.9849L290.193 53.0098C290.66 53.7893 291.117 54.6252 291.562 55.5175C293.166 58.734 294.624 62.6837 295.935 67.3666C297.106 71.0742 299.232 78.6012 301.923 88.1305C302.297 89.4548 302.682 90.8178 303.077 92.2145ZM511.822 15.4409L513.769 16.7298C530.902 28.0716 561.675 53.0725 575.213 66.6107L577.166 68.563L558.148 87.5808L556.196 85.5513C544.362 73.2435 514.6 47.7671 497.06 35.9157L494.381 34.1055L511.822 15.4409ZM487.021 177.249L491.261 176.619C532.682 170.465 563.432 156.036 585.911 142.076C622.31 119.148 651.146 84.1396 664.801 55.1822L667.078 50.3542L681.94 76.6735L681.209 78.0179C664.73 108.31 636.418 141.216 599.857 164.218C575.705 179.434 545.231 194.19 504.852 201.685L503.034 202.023L487.021 177.249ZM598.385 161.882C634.517 139.151 662.513 106.609 678.784 76.6985L667.298 56.3597C666.827 57.3591 666.338 58.3653 665.832 59.3778C651.429 88.1821 622.977 121.993 587.379 144.415C565.191 158.194 535.025 172.43 494.656 178.889C493.666 179.047 492.669 179.201 491.666 179.35L504.348 198.971C544.308 191.553 574.457 176.957 598.385 161.882ZM498.606 33.6281C499.351 34.132 500.119 34.6601 500.906 35.2104C517.862 47.0695 543.826 69.2352 556.252 81.6672C556.94 82.3549 557.586 83.0129 558.186 83.6376L573.261 68.563C573.255 68.5568 573.249 68.5506 573.242 68.5444C572.627 67.9293 571.975 67.2899 571.291 66.6289C557.052 52.8865 528.446 29.7571 512.245 19.032L498.606 33.6281ZM828.165 0L827.573 3.25482C826.661 8.27377 826.182 17.1709 826.182 23.8176V36.3706H862.902C868.421 36.3706 873.556 36.1182 877.198 35.0471L878.735 34.5949L894.309 49.5692L892.424 51.5587C891.818 52.1986 891.194 52.856 890.559 53.5251C886.673 57.6209 882.369 62.1565 879.112 65.8182C867.236 80.0642 847.475 99.8647 825.703 115.224C825.698 124.772 825.641 136.258 825.584 147.33L825.575 149.096C825.518 160.093 825.464 170.552 825.464 178.153C825.464 185.922 826.091 195.599 826.566 202.923L826.844 207.235H799.064L799.379 204.19C800.089 197.322 800.8 186.412 800.8 178.153C800.8 171.474 800.855 162.917 800.913 154.034L800.92 152.951C800.968 145.429 801.017 137.717 801.033 130.736C779.432 142.732 754.171 152.645 723.726 161.892L721.738 162.496L706.993 139.764L710.798 138.858C755.666 128.175 785.287 112.526 806.844 98.5492L806.851 98.545L806.857 98.5408C825.298 86.7306 842.079 70.9257 851.269 59.8385H757.619C749.307 59.8385 735.728 60.3148 728.365 60.7899L725.427 60.9794V34.8076L728.53 35.1955C735.993 36.1284 749.231 36.3706 757.14 36.3706H801.278V23.8176C801.278 17.0902 801.033 8.23823 800.127 3.25482L799.535 0H828.165ZM856.92 57.0775C856.287 57.9534 855.586 58.8758 854.823 59.8385C845.79 71.2363 827.984 88.2891 808.346 100.866C787.032 114.685 757.921 130.11 714.282 140.855C713.341 141.087 712.393 141.316 711.438 141.543L722.923 159.25C753.9 149.842 779.376 139.775 801.038 127.57C801.966 127.047 802.886 126.521 803.8 125.99C803.8 127.031 803.799 128.095 803.797 129.178C803.784 136.906 803.728 145.642 803.673 154.073C803.616 162.951 803.561 171.49 803.561 178.153C803.561 185.488 803.01 194.842 802.391 201.713C802.303 202.688 802.214 203.612 802.125 204.474H823.9C823.87 204.02 823.84 203.554 823.809 203.078C823.78 202.632 823.751 202.177 823.721 201.713C823.261 194.59 822.703 185.535 822.703 178.153C822.703 170.542 822.757 160.072 822.814 149.074C822.876 136.906 822.943 124.093 822.943 113.787C844.956 98.473 865.056 78.3735 877.02 64.0167C880.312 60.3131 884.666 55.7248 888.559 51.6212C889.194 50.9526 889.816 50.2968 890.419 49.6599L877.977 37.6958C873.909 38.8922 868.406 39.1315 862.902 39.1315H823.421V23.8176C823.421 18.1776 823.76 10.8419 824.438 5.52185C824.566 4.52216 824.705 3.59364 824.857 2.76093H802.843C802.994 3.59364 803.128 4.52216 803.245 5.52185C803.87 10.8419 804.039 18.1776 804.039 23.8176V39.1315H757.14C750.125 39.1315 738.765 38.9426 730.948 38.2293C729.967 38.1397 729.042 38.0419 728.188 37.9351V58.0342C729.033 57.9797 729.959 57.9256 730.948 57.8718C738.645 57.4533 750.198 57.0775 757.619 57.0775H856.92ZM902.213 166.191L900.03 164.585C879.285 149.324 865.044 139.833 842.703 127.949L839.617 126.308L855.813 107.932L857.738 108.957C880.312 120.964 893.317 128.671 915.657 143.804L918.078 145.444L902.213 166.191ZM914.108 146.09C913.333 145.565 912.57 145.049 911.817 144.541C890.944 130.477 878.151 122.942 856.442 111.394L843.999 125.512C844.844 125.961 845.677 126.407 846.5 126.85C867.579 138.203 881.63 147.622 901.666 162.361L914.108 146.09ZM1054.1 190.415L1054.52 188.73C1055.43 185.089 1056.11 180.53 1056.11 176V32.671C1056.11 24.6523 1055.16 18.3676 1054.8 15.9779C1054.76 15.7261 1054.73 15.5175 1054.7 15.3547L1054.25 12.2033H1082.63L1082.18 15.3547C1081.96 16.8893 1081.25 23.6973 1081.25 32.671V166.354C1102.36 155.798 1129.05 135.314 1146.08 110.318L1148.35 106.993L1163 128.193L1161.83 129.779C1140.95 158.187 1107.35 183.074 1079.3 196.868C1075.64 198.931 1073.19 200.731 1071.68 202.024L1069.91 203.54L1054.1 190.415ZM1078.02 194.424C1105.77 180.785 1139.03 156.14 1159.61 128.144L1148.36 111.873C1147.81 112.683 1147.25 113.489 1146.68 114.29C1128.97 139.104 1102.24 159.21 1081.25 169.432C1080.32 169.887 1079.4 170.321 1078.49 170.736V32.671C1078.49 26.2499 1078.85 20.9029 1079.15 17.7251C1079.27 16.403 1079.38 15.4564 1079.45 14.9642H1057.44C1057.46 15.1219 1057.49 15.3262 1057.53 15.5745C1057.61 16.1014 1057.72 16.8265 1057.84 17.7251C1058.28 20.9029 1058.87 26.2499 1058.87 32.671V176C1058.87 180.785 1058.15 185.571 1057.2 189.399L1069.88 199.928C1071.55 198.492 1074.19 196.578 1078.02 194.424ZM942.779 188.259L946.003 185.956C965.563 171.985 979.586 151.216 986.605 128.524L986.608 128.513L986.612 128.502C989.96 117.994 991.748 100.915 992.676 82.8975C993.6 64.9695 993.66 46.4285 993.66 33.1495C993.66 26.182 992.966 21.0946 992.034 16.1987L991.409 12.9211H1019.76L1019.51 15.9113C1019.45 16.6053 1019.36 17.4972 1019.25 18.5435C1018.88 22.1121 1018.32 27.477 1018.32 32.9102C1018.32 46.2163 1018.08 65.713 1017.03 84.8953C1015.99 104.007 1014.12 123.051 1010.81 135.324L1010.81 135.337L1010.8 135.35C1003.47 161.494 987.847 185.422 967.321 202.527L965.722 203.86L942.779 188.259ZM965.554 200.406C985.653 183.657 1000.97 160.207 1008.15 134.604C1014.61 110.676 1015.56 59.4703 1015.56 32.9102C1015.56 27.4591 1016.11 22.0081 1016.49 18.443C1016.5 18.3459 1016.51 18.2503 1016.52 18.156C1016.62 17.1536 1016.71 16.3136 1016.76 15.6821H994.746C994.919 16.5912 995.084 17.5082 995.239 18.443C995.939 22.6745 996.421 27.2699 996.421 33.1495C996.421 59.7096 996.181 107.566 989.242 129.34C982.348 151.632 968.831 172.159 949.965 186.468C949.188 187.057 948.402 187.635 947.607 188.203L965.554 200.406Z" fill="#BC9244"/>
</svg>
