<svg width="411" height="204" viewBox="0 0 411 204" fill="none" xmlns="http://www.w3.org/2000/svg">
<path fill-rule="evenodd" clip-rule="evenodd" d="M17.2483 204L0.670898 187.423V16.9773L17.2483 0.399902H55.8735L72.4509 16.9773V74.7799H47.2109V27.4882L42.4337 22.5199H30.6881L25.9109 27.4882V176.617L30.6535 181.36H42.4683L47.2109 176.617V125.46H72.4509V187.423L55.8735 204H17.2483ZM50.2109 177.86L43.7109 184.36H29.4109L22.9109 177.86V26.2799L29.4109 19.5199H43.7109L50.2109 26.2799V71.7799H69.4509V18.2199L54.6309 3.3999H18.4909L3.6709 18.2199V186.18L18.4909 201H54.6309L69.4509 186.18V128.46H50.2109V177.86ZM136.296 204L131.356 161.1H106.545L101.605 204H76.5387L102.792 0.399902H135.622L162.411 204H136.296ZM103.87 158.1H134.03L138.97 201H158.99L132.99 3.3999H105.43L79.9504 201H98.9304L103.87 158.1ZM105.69 141.46H132.21L118.95 23.6799L105.69 141.46ZM109.047 138.46H128.854L118.95 50.4953L109.047 138.46ZM170.051 204V0.399902H196.776L225.171 127.956V0.399902H248.851V204H222.135L193.471 77.5289V204H170.051ZM190.471 50.7199L224.531 201H245.851V3.3999H228.171V155.24L194.371 3.3999H173.051V201H190.471V50.7199ZM316.316 204L311.376 161.1H286.564L281.624 204H256.558L282.812 0.399902H315.641L342.431 204H316.316ZM283.89 158.1H314.05L318.99 201H339.01L313.01 3.3999H285.45L259.97 201H278.95L283.89 158.1ZM285.71 141.46H312.23L298.97 23.6799L285.71 141.46ZM289.067 138.46H308.873L298.97 50.4953L289.067 138.46ZM350.07 204V0.399902H375.31V181.36H410.41V204H350.07ZM407.41 184.36V201H353.07V3.3999H372.31V184.36H407.41Z" fill="#BC9244"/>
</svg>
