<svg width="430" height="92" viewBox="0 0 430 92" fill="none" xmlns="http://www.w3.org/2000/svg">
<path d="M332.679 76.218L333.976 74.9418H335.901L336.355 74.4877V69.6865L335.901 69.2325H335.187L334.733 69.6865V71.7413H332.744V68.8002L334.02 67.5239H337.047L338.345 68.8002V75.3964L337.047 76.6935H335.123L334.669 77.1481V82.2518H338.259V83.9603H332.679L332.679 76.218Z" fill="white"/>
<path d="M340.656 82.6845V68.8002L341.954 67.5239H345.284L346.582 68.8002V82.6845L345.284 83.9603H341.954L340.656 82.6845ZM344.138 82.2518L344.592 81.7977V69.6865L344.138 69.2325H343.1L342.646 69.6865V81.7977L343.1 82.2518H344.138Z" fill="white"/>
<path d="M348.982 76.218L350.279 74.9418H352.204L352.658 74.4877V69.6865L352.204 69.2325H351.49L351.036 69.6865V71.7413H349.046V68.8002L350.322 67.5239H353.35L354.648 68.8002V75.3964L353.35 76.6935H351.425L350.971 77.1481V82.2518H354.561V83.9603H348.981L348.982 76.218Z" fill="white"/>
<path d="M358.018 69.2325H356.569V67.5239H360.008V83.9603H358.018V69.2325Z" fill="white"/>
<path d="M367.316 82.6845V78.5754H369.306V81.8409L369.76 82.295H370.69L371.144 81.8409V76.9315L370.69 76.4774H368.614L367.338 75.2016V68.8002L368.614 67.5239H371.772L373.069 68.8002V72.4766H371.08V69.6433L370.626 69.1892H369.782L369.328 69.6433V74.3366L369.782 74.7908H371.837L373.134 76.0666V82.6845L371.837 83.9603H368.593L367.316 82.6845Z" fill="white"/>
<path d="M375.751 67.5239H380.811V69.2325H377.741V74.7908H380.423V76.4774H377.741V82.2518H380.855V83.9603H375.751L375.751 67.5239Z" fill="white"/>
<path d="M387.166 80.5651H385.004L384.657 83.9603H382.689L384.679 67.5239H387.533L389.566 83.9603H387.49L387.166 80.5651ZM386.993 78.8779L386.085 69.5783L385.155 78.8779H386.993Z" fill="white"/>
<path d="M391.556 82.6845V78.5754H393.545V81.8409L393.999 82.295H394.929L395.383 81.8409V76.9315L394.929 76.4774H392.853L391.577 75.2016V68.8002L392.853 67.5239H396.011L397.308 68.8002V72.4766H395.319V69.6433L394.865 69.1892H394.021L393.567 69.6433V74.3366L394.021 74.7908H396.076L397.373 76.0666V82.6845L396.076 83.9603H392.832L391.556 82.6845Z" fill="white"/>
<path d="M399.921 82.6845V68.8002L401.219 67.5239H404.765L406.063 68.8002V82.6845L404.765 83.9603H401.219L399.921 82.6845ZM403.619 82.2518L404.073 81.7977V69.6865L403.619 69.2325H402.365L401.911 69.6865V81.7977L402.365 82.2518H403.619Z" fill="white"/>
<path d="M408.679 67.5239H410.841L413.307 79.1378V67.5239H415.123V83.9603H412.961L410.496 72.498V83.9603H408.679V67.5239Z" fill="white"/>
<path d="M23.11 63.4589L19.2841 42.1542H17.0335V63.4589H7.28125V6.44531H26.3358L31.962 11.0964V37.5027L28.4362 40.4283L32.6375 63.4589H23.11ZM17.0335 33.3767H21.0844L22.2096 32.3264V16.1224L21.0844 15.0725H17.0335V33.3767Z" fill="white"/>
<path d="M35.1846 58.8081V11.0964L40.8109 6.44531H54.5393L60.1655 11.0964V58.8081L54.5393 63.4592H40.8109L35.1846 58.8081ZM49.2882 55.0569L50.4135 54.007V15.8978L49.2877 14.8474H46.0623L44.937 15.8978V54.007L46.0623 55.0569H49.2882Z" fill="white"/>
<path d="M77.9435 53.6317H72.0919L71.3416 63.4585H61.7393L68.3412 6.44531H81.9943L88.671 63.4589H78.6933L77.9435 53.6317ZM77.268 45.2295L75.0175 16.6475L72.7669 45.2295H77.268Z" fill="white"/>
<path d="M90.6191 6.44531H109.749L115.375 11.0964V58.8081L109.749 63.4592H90.6191V6.44531ZM104.498 55.0566L105.623 54.0067V15.8975L104.498 14.8471H100.372V55.0566H104.498Z" fill="white"/>
<path d="M134.071 15.2974H128.069V6.44531H149.825V15.2974H143.823V63.459H134.071V15.2974Z" fill="white"/>
<path d="M151.621 58.8081V11.0964L157.247 6.44531H170.976L176.602 11.0964V58.8081L170.976 63.4592H157.247L151.621 58.8081ZM165.725 55.0569L166.85 54.007V15.8978L165.725 14.8474H162.499L161.374 15.8978V54.007L162.499 55.0569H165.725Z" fill="white"/>
<path d="M195.302 15.2974H189.3V6.44531H211.055V15.2974H205.054V63.459H195.302V15.2974Z" fill="white"/>
<path d="M213.151 6.44531H222.904V30.2257H228.455V6.44531H238.208V63.4589H228.455V39.153H222.904V63.4589H213.151V6.44531Z" fill="white"/>
<path d="M242.182 6.44531H261.462V15.3726H251.934V30.1509H260.186V39.003H251.934V54.5316H261.611V63.4589H242.182V6.44531Z" fill="white"/>
<path d="M274.358 6.44531H287.562L291.613 45.3049L295.664 6.44531H309.167V63.4589H300.09V24.3746L295.889 63.4589H287.337L283.136 24.3746V63.4589H274.358L274.358 6.44531Z" fill="white"/>
<path d="M327.32 53.6317H321.469L320.719 63.4585H311.116L317.718 6.44531H331.371L338.048 63.4589H328.07L327.32 53.6317ZM326.646 45.2295L324.395 16.6475L322.144 45.2295H326.646Z" fill="white"/>
<path d="M338.345 55.0566H343.746L345.321 53.5564V6.44531H355.073V58.8078L349.447 63.4589H338.345V55.0566Z" fill="white"/>
<path d="M358.703 58.7796V11.068L364.329 6.41699H378.058L383.684 11.0681V58.7797L378.058 63.4308H364.329L358.703 58.7796ZM372.807 55.0285L373.932 53.9785V15.8694L372.806 14.819H369.581L368.456 15.8694V53.9785L369.581 55.0285H372.807Z" fill="white"/>
<path d="M403.185 63.4308L399.359 42.1261H397.109V63.4308H387.356V6.41699H406.411L412.037 11.0681V37.4746L408.511 40.4002L412.713 63.4308H403.185ZM397.109 33.3486H401.16L402.285 32.298V16.0946L401.16 15.0446H397.109L397.109 33.3486Z" fill="white"/>
</svg>
