<svg width="554" height="124" viewBox="0 0 554 124" fill="none" xmlns="http://www.w3.org/2000/svg">
<g clip-path="url(#clip0)">
<path d="M367.537 95.4321H359.75V106.466H367.537V95.4321Z" fill="white"/>
<path d="M332.236 89.5455V112.328H410.732V89.5455H332.236ZM354.274 98.7282C354.276 99.4043 354.13 100.073 353.848 100.687C353.568 101.31 353.08 101.815 352.467 102.117C352.211 102.251 351.928 102.326 351.639 102.338H343.412V106.363L354.274 106.388V109.468H342.956C342.686 109.468 342.419 109.405 342.178 109.282C341.929 109.159 341.698 109.003 341.492 108.817C341.281 108.632 341.097 108.42 340.944 108.185C340.793 107.959 340.667 107.718 340.566 107.465C340.382 106.948 340.29 106.403 340.297 105.854V99.2424H351.14V95.5057H341.541V92.3811H351.63C351.908 92.3765 352.183 92.4387 352.433 92.5623C352.675 92.6837 352.898 92.8405 353.094 93.0276C353.293 93.2184 353.469 93.4321 353.618 93.6643C353.77 93.8893 353.897 94.1308 353.995 94.3842C354.192 94.8978 354.283 95.4457 354.264 95.9954L354.274 98.7282ZM370.632 103.733C370.654 104.787 370.385 105.826 369.853 106.735C369.313 107.612 368.533 108.316 367.605 108.763C367.278 108.919 366.939 109.05 366.591 109.155C366.295 109.244 365.994 109.317 365.69 109.375C365.421 109.424 365.2 109.453 365.019 109.473H362.306C362.13 109.473 361.904 109.424 361.635 109.375C361.331 109.317 361.03 109.244 360.734 109.155C360.398 109.056 360.071 108.932 359.754 108.783V106.466H357.306C356.879 105.619 356.664 104.681 356.679 103.733V98.1894C356.657 97.1362 356.927 96.0973 357.458 95.1873C357.995 94.3098 358.776 93.6072 359.705 93.1647C360.572 92.7049 361.531 92.4455 362.512 92.4056H364.76C365.75 92.4312 366.72 92.6914 367.59 93.1647C368.514 93.6216 369.293 94.3271 369.838 95.202C370.371 96.106 370.64 97.1406 370.617 98.1894L370.632 103.733ZM387.013 98.7282C387.015 99.4043 386.869 100.073 386.587 100.687C386.307 101.31 385.819 101.815 385.206 102.117C384.95 102.251 384.667 102.326 384.379 102.338H376.117V106.363L386.979 106.388V109.468H375.696C375.425 109.469 375.158 109.406 374.917 109.282C374.668 109.159 374.437 109.003 374.231 108.817C374.02 108.632 373.836 108.42 373.683 108.185C373.531 107.959 373.403 107.718 373.301 107.465C373.12 106.947 373.03 106.402 373.036 105.854V99.2424H383.899V95.5057H374.28V92.3811H384.364C384.642 92.3771 384.917 92.4392 385.167 92.5623C385.409 92.6837 385.632 92.8405 385.828 93.0276C386.026 93.2196 386.202 93.4332 386.352 93.6643C386.503 93.8905 386.629 94.1318 386.729 94.3842C386.926 94.8978 387.018 95.4457 386.999 95.9954L387.013 98.7282ZM402.685 109.473H389.903V106.368H394.884V97.1904H389.903V94.0903H394.884V92.3811H397.984V106.368H402.67L402.685 109.473Z" fill="white"/>
<path d="M172.473 89.5455V112.328H194.663V108.043H177.165V103.239H194.663V98.9583H177.165V93.8308H194.663V89.5455H172.473Z" fill="white"/>
<path d="M197.993 89.5455V112.328H220.183V108.043H202.685V103.239H220.183V98.9583H202.685V93.8308H220.183V89.5455H197.993Z" fill="white"/>
<path d="M249.939 89.5455V112.328H272.13V108.043H254.631V103.239H272.13V98.9583H254.631V93.8308H272.13V89.5455H249.939Z" fill="white"/>
<path d="M291.519 89.5455V106.265L279.668 89.5455H275.466V112.328H279.668L280.157 112.314V98.2727L287.856 108.626V112.328H296.255V89.5455H291.519Z" fill="white"/>
<path d="M164.019 89.5454L160.184 104.321C160.184 104.321 156.874 94.0021 156.11 91.6464H150.341C149.126 95.3815 148.036 98.7297 147.069 101.691H145.717L142.466 89.5454H136.838L137.054 90.2702C139.89 99.8789 142.049 107.166 143.474 111.927L143.597 112.328H148.421L148.548 111.936C150.412 106.017 151.937 101.177 153.122 97.4156L157.687 111.936L157.814 112.328H162.878L162.995 111.922C166.091 101.147 168.172 93.8453 169.186 90.2653L169.387 89.5454H164.019Z" fill="white"/>
<path d="M322.004 90.6622C320.659 90.0056 319.194 89.6322 317.699 89.5652H304.27V108.048H299.583V112.328H304.27V108.048H308.957V93.8455H317.625C318.58 93.8455 321.911 94.4332 321.911 98.1062V103.787C321.911 107.46 318.58 108.048 317.625 108.048H308.957V112.328H317.694C319.189 112.261 320.654 111.888 321.999 111.231C324.883 109.791 326.475 107.152 326.475 103.787V98.0916C326.48 94.727 324.888 92.0873 322.004 90.6622Z" fill="white"/>
<path d="M245.944 111.432C241.305 105.144 238.068 100.764 236.233 98.2922L245.842 89.5503H239.475L228.177 99.8349V89.5503H223.495V112.328H228.211V105.584L232.496 101.667C236.231 106.773 238.771 110.242 240.117 112.073L240.283 112.304H246.62L245.944 111.432Z" fill="white"/>
<path d="M126.907 64.662C127.174 64.2354 127.528 63.87 127.946 63.5895C128.309 63.3548 128.712 63.1888 129.136 63.0997C129.443 63.0262 129.756 62.9819 130.071 62.9675H144.807V56.7282H130.003C129.934 56.7282 129.817 56.7282 129.425 56.7674C129.126 56.7674 128.764 56.836 128.338 56.9094C127.84 56.9986 127.349 57.1214 126.868 57.2767C126.284 57.4616 125.716 57.6925 125.169 57.9673C123.588 58.7168 122.258 59.9073 121.339 61.3954C120.426 62.9268 119.954 64.6813 119.978 66.4643V72.3754C119.951 74.1553 120.417 75.9079 121.324 77.4393C122.246 78.931 123.572 80.1301 125.149 80.8969C125.697 81.1769 126.267 81.4096 126.854 81.5923C127.334 81.7482 127.825 81.871 128.323 81.9596C128.759 82.0331 129.116 82.0821 129.41 82.1016C129.797 82.1359 129.9 82.1408 129.988 82.1408H144.807V75.9211H130.071C129.756 75.9068 129.443 75.8625 129.136 75.7889C128.711 75.6999 128.306 75.5339 127.941 75.2992C127.458 74.9905 127.066 74.5576 126.808 74.0458C126.549 73.534 126.433 72.9622 126.472 72.3901V66.4643C126.444 65.8344 126.595 65.2095 126.907 64.662Z" fill="white"/>
<path d="M166.987 56.7282V66.4594H155.199V56.7282H148.705V82.1457H155.199V72.684H166.987V82.1457H173.481V56.7282H166.987Z" fill="white"/>
<path d="M234.519 56.7282L234.112 57.6147C232.52 61.0918 231.13 64.2702 229.979 67.0568C229.166 69.0158 228.428 70.7968 227.765 72.3999C226.335 69.1431 225.106 66.3271 224.102 64.0156C222.907 61.273 221.947 59.1182 221.256 57.6147L220.85 56.7282H211.902V82.1457H218.529V68.4575C218.999 69.437 219.454 70.3757 219.895 71.2735C220.303 72.1061 220.701 72.937 221.09 73.7663C221.478 74.5956 221.851 75.3841 222.207 76.1317C222.559 76.881 222.873 77.5422 223.157 78.1201C223.441 78.698 223.646 79.0996 223.764 79.413L223.994 79.9517H231.57L231.801 79.4228C232.672 77.4475 233.5 75.5914 234.284 73.8544C235.067 72.1175 235.78 70.5111 236.424 69.0354L236.806 68.2763V82.1457H243.432V56.7282H234.519Z" fill="white"/>
<path d="M282.594 56.7282H275.963V82.1457H282.594V56.7282Z" fill="white"/>
<path d="M311.207 61.4052C310.288 59.9331 308.977 58.746 307.421 57.977C306.64 57.5805 305.82 57.2685 304.972 57.0465C304.216 56.8471 303.438 56.7419 302.656 56.733H296.955C295.305 56.7684 293.687 57.1947 292.234 57.977C290.665 58.739 289.341 59.9269 288.414 61.4052C287.51 62.9352 287.05 64.6872 287.087 66.4642V72.3753C287.052 74.1537 287.511 75.9068 288.414 77.4392C289.333 78.9332 290.66 80.133 292.239 80.8968C292.784 81.1776 293.353 81.4103 293.939 81.5922C294.419 81.7485 294.91 81.8713 295.408 81.9595C295.844 82.033 296.201 82.082 296.49 82.1016C296.882 82.1358 296.98 82.1407 297.073 82.1407H302.548C302.617 82.1407 302.739 82.1407 303.126 82.1016C303.42 82.1016 303.773 82.033 304.213 81.9595C305.323 81.7603 306.399 81.4024 307.406 80.8968C308.979 80.1308 310.299 78.9311 311.212 77.4392C312.101 75.9004 312.554 74.1476 312.519 72.3704V66.4642C312.561 64.6886 312.106 62.9367 311.207 61.4052ZM293.576 64.9166C293.719 64.5799 293.937 64.2802 294.213 64.04C294.532 63.7593 294.888 63.5237 295.271 63.3396C295.581 63.1855 295.91 63.0735 296.25 63.0066C296.495 62.9568 296.744 62.9273 296.995 62.9185H302.602C302.852 62.9278 303.101 62.9573 303.347 63.0066C303.703 63.0728 304.049 63.1865 304.375 63.3445C304.752 63.5225 305.102 63.7534 305.413 64.0302C305.684 64.2793 305.9 64.5831 306.045 64.9215V73.9523C305.9 74.2907 305.684 74.5945 305.413 74.8436C305.102 75.1215 304.753 75.3524 304.375 75.5293C304.049 75.6873 303.703 75.801 303.347 75.8672C303.101 75.9165 302.852 75.946 302.602 75.9553H297.024C296.774 75.9465 296.525 75.917 296.28 75.8672C295.926 75.8041 295.582 75.6954 295.256 75.5439C294.88 75.3692 294.53 75.1416 294.218 74.8681C293.943 74.625 293.725 74.3239 293.581 73.9866L293.576 64.9166Z" fill="white"/>
<path d="M333.957 56.7282V72.3069L322.409 56.7282H316.688V82.1457H323.217V69.1186L329.833 77.7087V82.1457H340.451V56.7282H333.957Z" fill="white"/>
<path d="M390.421 56.7282V66.4594H378.633V56.7282H372.139V82.1457H378.633V72.684H390.421V82.1457H396.915V56.7282H390.421Z" fill="white"/>
<path d="M408.37 56.7282H401.739V82.1457H408.37V56.7282Z" fill="white"/>
<path d="M271.658 61.7187C271.145 60.6064 270.362 59.6401 269.38 58.9076C267.519 57.4384 264.924 56.7282 261.677 56.7282H253.738V62.9185H262.215C262.775 62.9015 263.333 62.9878 263.861 63.1732C264.115 63.2739 264.357 63.4037 264.581 63.5601V67.1548C264.363 67.3037 264.128 67.4254 263.881 67.5172C263.344 67.6959 262.781 67.7787 262.215 67.7621H253.738V62.9039H247.244V82.131H253.738V74.0111H261.677C263.082 74.0308 264.485 73.8928 265.859 73.5998C267.079 73.3254 268.227 72.7964 269.229 72.0473C270.201 71.3337 270.987 70.3963 271.52 69.3145C272.068 68.1754 272.343 66.9247 272.324 65.6611V65.1958C272.343 64.0033 272.116 62.8197 271.658 61.7187Z" fill="white"/>
<path d="M368.828 69.3878C368.64 68.9651 368.421 68.5574 368.171 68.1683C367.904 67.7491 367.592 67.3599 367.241 67.0077C366.878 66.6446 366.462 66.3391 366.007 66.1016C365.511 65.847 364.962 65.7143 364.405 65.7147H350.923V62.9183H344.434C344.434 62.9967 344.434 63.075 344.434 63.1534V65.5531C344.43 66.4989 344.596 67.4377 344.923 68.3251C345.095 68.7759 345.322 69.2036 345.599 69.5984C345.875 70.0006 346.19 70.3746 346.539 70.715C346.908 71.07 347.329 71.3657 347.788 71.5916C348.276 71.8419 348.817 71.9728 349.365 71.9736H362.848V75.9699L345.482 76.0042L345.438 82.1602H364.405C364.96 82.1337 365.503 81.9937 366.002 81.7488C366.593 81.4973 367.121 81.1157 367.544 80.6322C367.945 80.1809 368.284 79.6786 368.553 79.1385C368.825 78.595 369.026 78.019 369.151 77.4244C369.274 76.8696 369.338 76.3032 369.342 75.7348V72.1548C369.366 71.2067 369.191 70.264 368.828 69.3878Z" fill="white"/>
<path d="M366.365 56.7282H350.924V62.9185H366.365V56.7282Z" fill="white"/>
<path d="M437.276 61.7187C436.759 60.6072 435.975 59.6413 434.993 58.9076C433.132 57.4384 430.542 56.7282 427.29 56.7282H419.351V62.9185H427.833C428.393 62.9015 428.951 62.9878 429.479 63.1732C429.732 63.2728 429.972 63.4028 430.194 63.5601V67.1548C429.977 67.3057 429.742 67.4275 429.494 67.5172C428.959 67.6963 428.397 67.7792 427.833 67.7621H419.351V62.943H412.843V82.1457H419.337V74.0112H427.275C428.682 74.0308 430.086 73.8928 431.462 73.5998C432.682 73.3245 433.83 72.7955 434.832 72.0473C435.803 71.3323 436.589 70.3953 437.124 69.3145C437.667 68.1743 437.94 66.9241 437.922 65.6611V65.1958C437.947 64.0047 437.727 62.8212 437.276 61.7187Z" fill="white"/>
<path d="M210.218 82.1457L198.998 61.7725V56.7282H189.82L175.843 82.1457H183.439L185.638 77.9536H193.013V71.729H188.88L193.042 63.6336L197.151 71.729L200.256 77.9536L202.485 82.1457H210.218Z" fill="white"/>
<path d="M285.397 36.3499H282.977V48.7207H293.962V46.3944H285.397V36.3499Z" fill="white"/>
<path d="M296.546 48.7207H308.594V46.3944H299.093V43.7841H308.594V41.4628H299.093V38.6761H308.594V36.3499H296.546V48.7207Z" fill="white"/>
<path d="M321.967 36.3499H317.922L311.105 48.7207H314.043L315.189 46.5414H323.368L324.533 48.7207H327.521L321.967 38.6565V36.3499ZM322.217 44.2151H316.399L319.337 38.4998L322.217 44.2151Z" fill="white"/>
<path d="M374.383 38.6761V36.3499H362.336V48.7207H374.383V46.3944H364.883V43.7841H374.383V41.4628H364.883V38.6761H374.383Z" fill="white"/>
<path d="M335.089 43.8527H339.384V46.3944H333.728C331.47 46.3944 331.396 44.5285 331.396 44.2543V40.9877C331.39 40.6812 331.446 40.3767 331.561 40.0926C331.676 39.8084 331.848 39.5505 332.065 39.3344C332.283 39.1184 332.542 38.9486 332.826 38.8355C333.111 38.7223 333.416 38.6681 333.723 38.6761H339.301V36.3499H333.683C332.872 36.3892 332.078 36.5924 331.347 36.9474C330.589 37.3077 329.953 37.8825 329.518 38.6006C329.082 39.3187 328.867 40.1486 328.899 40.9877V44.5138C328.899 46.5071 330.201 48.7207 333.708 48.7207H341.833V41.5313H335.089V43.8527Z" fill="white"/>
<path d="M357.211 48.7208H359.757V46.3945H357.211V48.7208Z" fill="white"/>
<path d="M354.625 46.375H357.182V36.3206H354.625V46.375Z" fill="white"/>
<path d="M347.711 45.6598C347.401 45.293 347.171 44.8661 347.035 44.4059C346.898 43.9457 346.858 43.4622 346.918 42.9858V36.3499H344.376V43.1573C344.376 44.0633 344.293 45.8557 345.889 47.4033C346.835 48.324 348.338 48.7354 349.959 48.7354H354.661V46.4189H350.292C349.386 46.4042 348.382 46.4042 347.711 45.6598Z" fill="white"/>
<path d="M286.531 14.9923L265.218 14.9629L221.596 29.9392L249.232 17.6565V12.3281H235.02L217.262 26.5355V31.428L203.05 36.3058V41.3207L178.201 45.1848V48.7403H279.425V32.7552H258.111L208.545 40.4637L286.531 23.8713V14.9923Z" fill="white"/>
<path d="M328.61 20.9769C328.587 20.9756 328.564 20.9803 328.544 20.9906C328.523 21.0009 328.506 21.0164 328.493 21.0356C328.454 21.169 328.439 21.3084 328.449 21.447V23.739C328.441 23.8817 328.451 24.0248 328.478 24.1651C328.487 24.1909 328.505 24.2128 328.528 24.2271C328.551 24.2414 328.578 24.2472 328.605 24.2434C328.634 24.2467 328.662 24.2395 328.686 24.2233C328.709 24.2071 328.726 24.1829 328.733 24.1553C328.759 24.0166 328.769 23.8752 328.762 23.7341V21.447C328.768 21.3141 328.758 21.181 328.733 21.0503C328.723 21.0263 328.706 21.0062 328.684 20.9929C328.662 20.9796 328.636 20.974 328.61 20.9769Z" fill="white"/>
<path d="M337.199 19.8799C336.797 19.7911 336.386 19.7532 335.974 19.7673V27.9312C336.494 27.9312 337.233 27.8382 337.351 27.6521C337.518 27.1629 337.58 26.6438 337.532 26.129V21.3051C337.545 20.9449 337.526 20.5842 337.473 20.2276C337.458 20.1522 337.425 20.0814 337.378 20.021C337.33 19.9606 337.269 19.9122 337.199 19.8799Z" fill="white"/>
<path d="M290.081 14.9923V32.7552H374.39V14.9923H290.081ZM305.532 29.6845C304.736 30.115 303.841 30.3263 302.937 30.2967C302.031 30.3393 301.127 30.1717 300.297 29.8069C299.984 29.6718 299.701 29.4764 299.464 29.2319C299.227 28.9873 299.041 28.6985 298.916 28.3818C298.652 27.4925 298.537 26.566 298.573 25.6393V22.1082C298.559 21.4326 298.592 20.7568 298.671 20.0856C298.755 19.6035 298.968 19.1533 299.288 18.7829C299.671 18.34 300.162 18.0028 300.713 17.8034C301.384 17.5517 302.097 17.4287 302.814 17.441C303.732 17.4029 304.644 17.5895 305.473 17.9846C306.086 18.2622 306.577 18.753 306.854 19.3657C307.117 20.1962 307.23 21.0668 307.187 21.9368V22.9163H303.681V20.9574C303.706 20.5598 303.665 20.1609 303.558 19.7771C303.48 19.6253 303.172 19.5469 302.907 19.5469C302.643 19.5469 302.275 19.6399 302.197 19.8309C302.089 20.2328 302.049 20.65 302.079 21.0651V26.7461C302.056 27.1454 302.099 27.5459 302.207 27.9312C302.285 28.1173 302.608 28.2055 302.892 28.2055C303.176 28.2055 303.534 28.1124 303.617 27.9263C303.728 27.4998 303.769 27.0584 303.74 26.6187V24.841H307.168V25.5266C307.216 26.4525 307.115 27.3802 306.869 28.2741C306.6 28.8895 306.128 29.3943 305.532 29.7041V29.6845ZM312.971 30.0812L312.614 27.5394H311.894L311.448 25.174H312.242C312.046 23.7685 311.904 22.3776 311.669 20.2766C311.385 22.4364 311.149 23.8076 311.037 24.8606L310.425 30.0861H307.134L308.96 17.632H314.152L316.204 30.091L312.971 30.0812ZM322.438 30.0812H316.664V17.6418H320.254V27.5688H322.438V30.0812ZM328.868 30.0812H323.094V17.6418H326.684V27.5688H328.868V30.0812ZM329.73 23.1514C329.735 23.4308 329.725 23.7104 329.701 23.9888C329.685 24.1449 329.628 24.2939 329.534 24.4198C329.433 24.5442 329.299 24.6376 329.147 24.6892C328.967 24.7624 328.774 24.799 328.579 24.7969C328.391 24.8002 328.205 24.7652 328.031 24.6941C327.876 24.6462 327.738 24.5543 327.634 24.4296C327.539 24.3039 327.478 24.1553 327.458 23.9986C327.434 23.7169 327.424 23.4341 327.428 23.1514V22.0984C327.428 21.7213 327.428 21.3344 327.458 21.1777C327.463 21.0453 327.511 20.9181 327.595 20.8153C327.695 20.6854 327.829 20.5855 327.982 20.5264C328.173 20.4545 328.375 20.4196 328.579 20.4235C328.778 20.4213 328.975 20.4544 329.162 20.5215C329.317 20.5789 329.453 20.679 329.554 20.8104C329.641 20.9098 329.693 21.0357 329.701 21.1679C329.726 21.4021 329.736 21.6377 329.73 21.8732V23.1514ZM331.777 21.1434H331.057V22.1229H331.684V22.7596H331.057V24.7186H330.078V20.4137H331.787L331.777 21.1434ZM340.896 26.3445C340.931 27.095 340.871 27.8468 340.72 28.5826C340.619 28.9346 340.403 29.243 340.108 29.4592C339.785 29.6868 339.415 29.839 339.025 29.9049C338.376 30.0018 337.722 30.0607 337.066 30.0812H332.527V17.6418H335.23C336.414 17.602 337.6 17.6741 338.771 17.8573C339.297 17.9523 339.785 18.1971 340.176 18.5625C340.48 18.8592 340.69 19.2392 340.779 19.6546C340.88 20.4388 340.919 21.2297 340.896 22.0201V26.3445ZM349.814 25.9184C349.83 26.5731 349.796 27.228 349.712 27.8774C349.614 28.3158 349.402 28.7211 349.099 29.0528C348.742 29.4671 348.283 29.7811 347.767 29.9637C347.138 30.1822 346.474 30.2867 345.808 30.2722C345.059 30.2862 344.314 30.1616 343.609 29.9049C343.058 29.7184 342.566 29.3888 342.184 28.9499C341.888 28.5922 341.695 28.1604 341.626 27.7011C341.551 26.7856 341.523 25.867 341.543 24.9487V17.6026H344.971V26.9077C344.946 27.2568 344.979 27.6076 345.069 27.9459C345.132 28.0978 345.431 28.1712 345.632 28.1712C345.833 28.1712 346.205 28.0929 346.269 27.9263C346.359 27.5398 346.392 27.1422 346.367 26.7461V17.6418H349.795L349.814 25.9184ZM363.331 25.6686V30.0763H360.016V25.6686L358.243 20.2081H356.157V30.0812H352.577V20.2276H350.461V17.6418H360.256L361.695 22.118L363.101 17.6418H365.927L363.331 25.6686Z" fill="white"/>
<path d="M377.975 15.3449H377.29V17.2304H376.854V15.3449H376.173V14.9923H377.975V15.3449Z" fill="white"/>
<path d="M378.755 14.9922L378.966 15.8346L379.206 14.9922H379.745V17.2304H379.348V15.5212L379.059 16.5007H378.843L378.579 15.5701V17.2108H378.182V14.9727L378.755 14.9922Z" fill="white"/>
</g>
<defs>
<clipPath id="clip0">
<rect width="317.939" height="100" fill="white" transform="translate(120 12.3281)"/>
</clipPath>
</defs>
</svg>
