<svg width="542" height="124" viewBox="0 0 542 124" fill="none" xmlns="http://www.w3.org/2000/svg">
<g clip-path="url(#clip0)">
<path d="M286.546 46.4703H283.093V64.093H298.766V60.7801H286.546V46.4703Z" fill="white"/>
<path d="M302.455 64.093H319.65V60.7801H306.087V57.0632H319.65V53.7502H306.087V49.7833H319.65V46.4703H302.455V64.093Z" fill="white"/>
<path d="M338.733 46.4655H332.953L323.233 64.0882H327.4L329.037 60.9772H340.727L342.388 64.0882H346.651L338.733 49.7496V46.4655ZM339.084 57.6691H330.786L334.952 49.5285L339.084 57.6691Z" fill="white"/>
<path d="M413.527 49.7833V46.4703H396.333V64.093H413.527V60.7801H399.969V57.0632H413.527V53.7502H399.969V49.7833H413.527Z" fill="white"/>
<path d="M357.455 57.1497H363.596V60.7753H355.509C352.287 60.7753 352.181 58.1162 352.181 57.7268V53.077C352.181 50.2353 354.762 49.7785 355.504 49.7785H363.461V46.4655H355.456C354.297 46.5204 353.161 46.81 352.118 47.3166C351.039 47.8351 350.135 48.6578 349.519 49.6832C348.902 50.7087 348.6 51.8919 348.65 53.0867V58.073C348.65 60.9147 350.514 64.069 355.514 64.069H367.073V53.8416H357.455V57.1497Z" fill="white"/>
<path d="M389.017 64.093H392.654V60.7801H389.017V64.093Z" fill="white"/>
<path d="M385.332 60.7511H388.978V46.427H385.332V60.7511Z" fill="white"/>
<path d="M375.487 59.7319C374.206 58.2893 374.355 56.8468 374.355 55.9188V46.4655H370.724V56.1496C370.724 57.4382 370.603 59.9963 372.881 62.1985C374.235 63.5112 376.412 64.093 378.69 64.093H385.404V60.7945H379.143C377.852 60.7849 376.417 60.7897 375.487 59.7319Z" fill="white"/>
<path d="M288.165 16.0428L257.749 15.9996L195.511 37.3344L234.943 19.8415V12.249H214.666L189.322 32.4875V39.4549L169.044 46.4078V53.5482L133.586 59.0538V64.117H278.026V41.3445H247.61L176.89 52.3317L288.165 28.6937V16.0428Z" fill="white"/>
<path d="M348.173 24.5633C348.14 24.562 348.107 24.5693 348.078 24.5845C348.048 24.5996 348.023 24.6222 348.005 24.6499C347.948 24.84 347.927 25.0388 347.942 25.2365V28.5014C347.934 28.7041 347.947 28.9072 347.981 29.1072C347.994 29.1435 348.02 29.174 348.053 29.1941C348.086 29.2141 348.125 29.2225 348.164 29.2178C348.204 29.2216 348.244 29.2112 348.278 29.1883C348.311 29.1655 348.336 29.1317 348.347 29.0928C348.386 28.895 348.4 28.6931 348.39 28.4918V25.2365C348.398 25.0463 348.384 24.8559 348.347 24.6691C348.333 24.6355 348.308 24.6072 348.277 24.5882C348.246 24.5692 348.21 24.5605 348.173 24.5633Z" fill="white"/>
<path d="M360.465 23.0005C359.891 22.8778 359.304 22.8246 358.717 22.8419V34.4685C359.463 34.4685 360.513 34.3387 360.682 34.0694C360.851 33.8002 360.942 33.0837 360.942 31.9057V25.0345C360.962 24.52 360.933 24.0048 360.855 23.4958C360.831 23.3897 360.783 23.2903 360.716 23.2047C360.648 23.1191 360.563 23.0494 360.465 23.0005Z" fill="white"/>
<path d="M293.231 16.0429V41.3446H413.532V16.0429H293.231ZM315.276 36.993C314.143 37.6092 312.867 37.9145 311.577 37.8778C310.281 37.9289 308.99 37.6804 307.806 37.1517C306.909 36.7584 306.201 36.03 305.836 35.1226C305.461 33.8532 305.298 32.5308 305.354 31.2085V26.1838C305.333 25.22 305.38 24.256 305.494 23.2987C305.612 22.6127 305.917 21.9723 306.375 21.4475C306.92 20.8119 307.62 20.3282 308.408 20.0435C310.623 19.2702 313.049 19.363 315.199 20.3031C316.07 20.6997 316.769 21.3961 317.169 22.2649C317.542 23.4506 317.705 24.6922 317.651 25.9337V27.2993H312.646V24.5105C312.684 23.9453 312.626 23.3778 312.473 22.8323C312.362 22.6063 311.919 22.4957 311.538 22.5005C311.158 22.5054 310.643 22.6352 310.527 22.9044C310.378 23.4785 310.321 24.0725 310.358 24.6643V32.752C310.323 33.3222 310.383 33.8943 310.537 34.4446C310.652 34.7042 311.11 34.8389 311.5 34.8341C311.89 34.8293 312.415 34.7042 312.535 34.4398C312.693 33.8329 312.752 33.2045 312.709 32.5789V30.0401H317.631V31.0354C317.631 32.8754 317.488 34.1801 317.203 34.9495C316.816 35.8322 316.135 36.5543 315.276 36.993ZM325.872 37.5604L325.362 33.9445H324.341L323.7 30.5786H324.837C324.552 28.5735 324.355 26.5973 324.013 23.5921C323.613 26.6694 323.276 28.6216 323.117 30.1218L322.236 37.5845H317.54L320.15 19.8463H327.568L330.496 37.5893L325.872 37.5604ZM339.358 37.5604H331.165V19.8175H336.285V33.9541H339.397L339.358 37.5604ZM348.538 37.5604H340.302V19.8175H345.422V33.9541H348.538V37.5604ZM349.767 27.6936C349.767 28.2321 349.767 28.6553 349.728 28.8861C349.704 29.1089 349.621 29.3213 349.487 29.5015C349.342 29.6781 349.15 29.8098 348.933 29.8814C348.678 29.9859 348.405 30.0367 348.129 30.0305C347.859 30.0337 347.591 29.9864 347.339 29.891C347.121 29.8211 346.927 29.6911 346.78 29.516C346.644 29.3363 346.556 29.1242 346.525 28.9005C346.525 28.6793 346.487 28.2466 346.487 27.6936V26.1309C346.487 25.5875 346.487 25.0394 346.525 24.8182C346.533 24.6291 346.6 24.4473 346.718 24.2989C346.861 24.1142 347.053 23.9727 347.272 23.8902C347.545 23.7854 347.836 23.7347 348.129 23.7411C348.413 23.7382 348.695 23.7854 348.962 23.8806C349.182 23.9639 349.375 24.1051 349.521 24.2893C349.642 24.4334 349.714 24.6116 349.728 24.799C349.76 25.1329 349.773 25.4685 349.767 25.8039V27.6936ZM352.69 24.8086H351.693V26.1982H352.579V27.107H351.693V29.9151H350.248V23.8084H352.685L352.69 24.8086ZM365.695 32.2231C365.741 33.2904 365.657 34.3594 365.444 35.4062C365.297 35.9087 364.989 36.3494 364.568 36.6612C364.105 36.9832 363.577 37.1999 363.021 37.2959C362.104 37.4327 361.179 37.5145 360.252 37.5412H353.75V19.7982H357.603C359.293 19.7396 360.985 19.8426 362.655 20.106C363.405 20.2427 364.1 20.5896 364.659 21.1061C365.115 21.528 365.432 22.0778 365.569 22.6833C365.718 23.7987 365.776 24.9243 365.743 26.0491L365.695 32.2231ZM378.463 31.6269C378.486 32.57 378.438 33.5135 378.318 34.4494C378.176 35.0711 377.876 35.6457 377.447 36.1179C376.937 36.7091 376.281 37.1567 375.544 37.4162C374.649 37.73 373.704 37.8799 372.755 37.8585C371.687 37.8793 370.624 37.7015 369.62 37.3344C368.834 37.0685 368.132 36.599 367.587 35.9736C367.16 35.4666 366.883 34.8504 366.788 34.1945C366.681 32.8895 366.641 31.58 366.668 30.2709V19.8175H371.585V33.0694C371.552 33.5676 371.601 34.0679 371.73 34.5504C371.821 34.7667 372.25 34.8725 372.534 34.8725C372.818 34.8725 373.348 34.7571 373.444 34.5167C373.569 33.9682 373.616 33.4049 373.584 32.8434V19.8175H378.463V31.6269ZM397.753 31.271V37.5556H393.023V31.2758L390.49 23.4959H387.513V37.5604H382.427V23.4959H379.407V19.8175H393.351L395.407 26.1886L397.416 19.8175H401.447L397.753 31.271Z" fill="white"/>
<path d="M418.653 16.5429H417.666V19.2308H417.049V16.5429H416.086V16.0621H418.663L418.653 16.5429Z" fill="white"/>
<path d="M419.756 16.0429L420.059 17.2402L420.401 16.0429H421.167V19.2309H420.604V16.7786L420.185 18.1586H419.881L419.506 16.8363L419.534 18.2788V19.2405H418.966V16.0525L419.756 16.0429Z" fill="white"/>
<path d="M165.981 75.4889V104.878H191.894V111.653H158.521V75.4889H165.981Z" fill="white"/>
<path d="M242.703 75.4408L255.501 92.2702L268.023 75.4408H277.247L259.267 99.4827V111.638H251.802V99.4972L233.456 75.4552L242.703 75.4408Z" fill="white"/>
<path d="M277.564 89.0437C277.505 86.5731 278.143 84.1356 279.404 82.009C280.685 79.9554 282.522 78.3052 284.702 77.2488C286.742 76.1461 289.015 75.5429 291.334 75.4889H300.09C301.177 75.501 302.258 75.6497 303.308 75.9313C304.508 76.2473 305.673 76.6889 306.78 77.2488C308.943 78.3166 310.764 79.965 312.04 82.009C313.299 84.1365 313.936 86.5734 313.88 89.0437V98.0979C313.935 100.574 313.307 103.018 312.064 105.161C310.797 107.233 308.957 108.894 306.766 109.946C305.991 110.339 305.186 110.668 304.358 110.931C303.678 111.15 302.985 111.322 302.282 111.446C301.661 111.552 301.145 111.619 300.731 111.653C300.317 111.686 300.057 111.706 299.951 111.706H291.556C291.455 111.706 291.194 111.706 290.78 111.653C290.366 111.6 289.846 111.552 289.224 111.446C288.514 111.322 287.812 111.15 287.125 110.931C286.296 110.668 285.491 110.339 284.716 109.946C282.53 108.888 280.691 107.228 279.418 105.161C278.159 103.024 277.522 100.577 277.578 98.0979L277.564 89.0437ZM284.817 86.4087V100.834C285.122 101.638 285.618 102.356 286.262 102.926C287.338 103.874 288.655 104.509 290.067 104.762C290.522 104.852 290.982 104.905 291.445 104.921H299.994C300.455 104.905 300.914 104.852 301.367 104.762C302.034 104.643 302.682 104.435 303.293 104.142C303.995 103.819 304.645 103.393 305.22 102.877C305.861 102.303 306.356 101.584 306.665 100.781V86.4087C306.357 85.605 305.862 84.8863 305.22 84.3123C304.133 83.3416 302.8 82.6879 301.367 82.4226C300.914 82.3366 300.455 82.2851 299.994 82.2687H291.455C290.992 82.2853 290.532 82.3368 290.077 82.4226C289.423 82.545 288.788 82.7536 288.189 83.0428C287.493 83.3776 286.845 83.8046 286.262 84.3123C285.616 84.8824 285.12 85.6023 284.817 86.4087Z" fill="white"/>
<path d="M318.557 82.3216H325.811V75.4889H353.9V82.3216H325.811V90.443H353.9V97.2709H325.864V111.696H318.557V82.3216Z" fill="white"/>
<path d="M358.245 82.3216H365.499V75.4889H393.588V82.3216H365.499V90.443H393.588V97.2709H365.571V111.696H358.245V82.3216Z" fill="white"/>
<path d="M233.61 111.71H242.371L226.096 82.2158V75.4937H214.18L194.226 111.71H202.775L206.146 105.291H218.298V98.4633H209.72L218.322 81.7542L233.61 111.71Z" fill="white"/>
<path d="M154.205 82.3216C153.508 80.8256 152.449 79.5266 151.123 78.5422C148.499 76.5067 144.837 75.4889 140.136 75.4889H126.612V82.2687H140.965C141.998 82.2364 143.027 82.3996 143.999 82.7495C144.716 83.0233 145.371 83.4369 145.926 83.9661V90.7699C145.373 91.2944 144.717 91.6987 143.999 91.9576C143.025 92.3002 141.997 92.4632 140.965 92.4384H126.612V82.2687H119.354V111.706H126.612V99.2375H140.161C142.215 99.2682 144.267 99.0682 146.277 98.6412C147.966 98.2631 149.555 97.5322 150.94 96.4967C152.258 95.5301 153.325 94.2621 154.051 92.7991C154.796 91.2402 155.169 89.5301 155.14 87.8031V87.13C155.167 85.4798 154.848 83.8421 154.205 82.3216Z" fill="white"/>
<path d="M428.145 104.931H399.902V111.71H428.145V104.931Z" fill="white"/>
<path d="M435.409 103.224V97.7373C435.446 96.4789 435.217 95.2269 434.734 94.0637C434.476 93.4806 434.173 92.918 433.829 92.3807C433.473 91.8207 433.056 91.3014 432.586 90.8324C432.13 90.3746 431.605 89.9902 431.03 89.6928C430.462 89.3991 429.831 89.2473 429.19 89.2505H407.102V82.2687H430.838V75.4889H406.12C405.431 75.5062 404.757 75.684 404.15 76.0082C403.434 76.3464 402.792 76.8199 402.257 77.4026C401.724 77.9913 401.28 78.6537 400.937 79.3693C400.589 80.0957 400.329 80.8608 400.162 81.6484C399.992 82.4126 399.904 83.1928 399.902 83.9757V87.6493C399.912 88.5949 400.052 89.5348 400.316 90.443C400.581 91.4171 400.981 92.3494 401.506 93.2126C401.999 94.0333 402.654 94.745 403.432 95.3042C404.21 95.8586 405.145 96.1501 406.1 96.1361H428.126V104.931H435.245C435.345 104.367 435.4 103.796 435.409 103.224Z" fill="white"/>
</g>
<defs>
<clipPath id="clip0">
<rect width="316.227" height="99.4614" fill="white" transform="translate(119.354 11.9219)"/>
</clipPath>
</defs>
</svg>
