<svg width="481" height="204" viewBox="0 0 481 204" fill="none" xmlns="http://www.w3.org/2000/svg">
<path fill-rule="evenodd" clip-rule="evenodd" d="M17.3127 204L0.735352 187.423V16.9773L17.3127 0.399902H55.938L72.5154 16.9773V74.7799H47.2754V27.4882L42.4981 22.5199H30.7526L25.9754 27.4882V176.617L30.718 181.36H42.5327L47.2754 176.617V125.46H72.5154V187.423L55.938 204H17.3127ZM50.2754 177.86L43.7754 184.36H29.4754L22.9754 177.86V26.2799L29.4754 19.5199H43.7754L50.2754 26.2799V71.7799H69.5154V18.2199L54.6954 3.3999H18.5554L3.73535 18.2199V186.18L18.5554 201H54.6954L69.5154 186.18V128.46H50.2754V177.86ZM136.361 204L131.421 161.1H106.609L101.669 204H76.6032L102.857 0.399902H135.686L162.475 204H136.361ZM103.935 158.1H134.095L139.035 201H159.055L133.055 3.3999H105.495L80.0149 201H98.9949L103.935 158.1ZM105.755 141.46H132.275L119.015 23.6799L105.755 141.46ZM109.112 138.46H128.918L119.015 50.4953L109.112 138.46ZM170.115 204V0.399902H196.841L225.235 127.956V0.399902H248.915V204H222.199L193.535 77.5289V204H170.115ZM190.535 50.7199L224.595 201H245.915V3.3999H228.235V155.24L194.435 3.3999H173.115V201H190.535V50.7199ZM316.38 204L311.44 161.1H286.629L281.689 204H256.623L282.876 0.399902H315.706L342.495 204H316.38ZM283.954 158.1H314.114L319.054 201H339.074L313.074 3.3999H285.514L260.034 201H279.014L283.954 158.1ZM285.774 141.46H312.294L299.034 23.6799L285.774 141.46ZM289.131 138.46H308.938L299.034 50.4953L289.131 138.46ZM350.135 204V0.399902H375.375V181.36H410.475V204H350.135ZM407.475 184.36V201H353.135V3.3999H372.375V184.36H407.475ZM417.674 204V0.399902H480.094V23.0399H442.914V89.5799H475.414V111.96H442.914V181.36H480.614V204H417.674ZM477.614 184.36V201H420.674V3.3999H477.094V20.0399H439.914V92.5799H472.414V108.96H439.914V184.36H477.614Z" fill="#BC9244"/>
</svg>
