<svg width="584" height="204" viewBox="0 0 584 204" fill="none" xmlns="http://www.w3.org/2000/svg">
<path fill-rule="evenodd" clip-rule="evenodd" d="M16.6584 204L0.0810547 187.423V16.9773L16.6584 0.399902H55.2837L71.8611 16.9773V74.7799H46.6211V27.4882L41.8438 22.5199H30.0983L25.3211 27.4882V176.617L30.0637 181.36H41.8784L46.6211 176.617V125.46H71.8611V187.423L55.2837 204H16.6584ZM49.6211 177.86L43.1211 184.36H28.8211L22.3211 177.86V26.2799L28.8211 19.5199H43.1211L49.6211 26.2799V71.7799H68.8611V18.2199L54.0411 3.3999H17.9011L3.08105 18.2199V186.18L17.9011 201H54.0411L68.8611 186.18V128.46H49.6211V177.86ZM84.6562 204V0.399902H109.896V90.0999H136.136V0.399902H161.376V204H136.136V113H109.896V204H84.6562ZM106.896 3.3999V93.0999H139.136V3.3999H158.376V201H139.136V110H106.896V201H87.6562V3.3999H106.896ZM228.636 204L223.696 161.1H198.885L193.945 204H168.879L195.132 0.399902H227.961L254.751 204H228.636ZM196.21 158.1H226.37L231.31 201H251.33L225.33 3.3999H197.77L172.29 201H191.27L196.21 158.1ZM198.03 141.46H224.55L211.29 23.6799L198.03 141.46ZM201.387 138.46H221.194L211.29 50.4953L201.387 138.46ZM262.391 204V0.399902H289.116L317.511 127.956V0.399902H341.191V204H314.474L285.811 77.5288V204H262.391ZM282.811 50.7199L316.871 201H338.191V3.3999H320.511V155.24L286.711 3.3999H265.391V201H282.811V50.7199ZM356.59 204V0.399902H383.315L411.71 127.956V0.399902H435.39V204H408.674L380.01 77.5288V204H356.59ZM377.01 50.7199L411.07 201H432.39V3.3999H414.71V155.24L380.91 3.3999H359.59V201H377.01V50.7199ZM450.789 204V0.399902H513.209V23.0399H476.029V89.5799H508.529V111.96H476.029V181.36H513.729V204H450.789ZM510.729 184.36V201H453.789V3.3999H510.209V20.0399H473.029V92.5799H505.529V108.96H473.029V184.36H510.729ZM523.66 204V0.399902H548.9V181.36H584V204H523.66ZM581 184.36V201H526.66V3.3999H545.9V184.36H581Z" fill="#BC9244"/>
</svg>
