<svg width="509" height="247" viewBox="0 0 509 247" fill="none" xmlns="http://www.w3.org/2000/svg">
<path fill-rule="evenodd" clip-rule="evenodd" d="M132.229 61.4399H166.705C169.169 54.924 171.877 47.0403 174.09 39.8799H125.729V16.7199H243.269V39.8799H198.952C196.302 47.147 193.387 54.7624 190.673 61.4399H235.989V188.6H212.569V82.2599H154.869V189.12H132.229V61.4399ZM186.189 64.4399C186.597 63.4685 187.012 62.4668 187.432 61.4399C190.502 53.9469 193.877 45.1118 196.849 36.8799H240.269V19.7199H128.729V36.8799H178.129C177.841 37.8596 177.54 38.8616 177.229 39.8799C174.729 48.0507 171.544 57.2731 168.769 64.4399H135.229V186.12H151.869V79.2599H215.569V185.6H232.989V64.4399H186.189ZM56.0494 183.92V105.14H2.4894V81.9799H21.7294V24.2599H43.5894V81.9799H60.9894V1.6399H84.1494V33.8799H121.589V56.2599H84.1494V81.9799H127.569V105.14H79.7294V174.209C90.1745 159.248 97.7609 141.525 102.94 120.909L103.673 117.992L125.859 123.626L125.141 126.521C117.775 156.249 106.087 180.831 88.7346 200.611C71.3743 220.399 48.4854 235.219 18.9672 245.629L16.3536 246.551L15.228 244.018C13.2884 239.654 9.34766 233.759 5.51758 230.169L1.78485 226.669L6.66147 225.121C33.6714 216.544 54.378 203.671 69.9889 186.445C70.7423 185.614 71.4841 184.772 72.2145 183.92H56.0494ZM76.7294 180.92V102.14H124.569V84.9799H81.1494V53.2599H118.589V36.8799H81.1494V4.6399H63.9894V84.9799H40.5894V27.2599H24.7294V84.9799H5.4894V102.14H59.0494V180.92H76.7294ZM76.1312 183.92C60.2933 203.183 38.9167 217.47 10.7792 226.931C9.7189 227.287 8.64899 227.637 7.5694 227.98C8.34671 228.709 9.12402 229.519 9.88776 230.386C13.2114 234.157 16.2781 238.994 17.9694 242.8C75.243 222.601 106.618 185.806 121.491 128.708C121.495 128.69 121.5 128.673 121.504 128.655C121.751 127.709 121.992 126.757 122.229 125.8L105.85 121.64C105.755 122.018 105.659 122.396 105.562 122.772C99.9181 144.753 91.5051 163.582 79.7294 179.331C79.3308 179.864 78.9284 180.394 78.5221 180.92C77.9327 181.683 77.3352 182.438 76.7294 183.187C76.5309 183.432 76.3315 183.676 76.1312 183.92ZM27.2241 115.526L49.5469 120.132L48.6779 123.23C42.6208 144.825 32.3352 166.772 21.1337 181.441L19.2338 183.929L16.8288 181.925C13.8952 179.48 7.33111 175.185 3.36776 173.203L0 171.519L2.39361 168.613C12.9661 155.775 21.6442 136.964 26.5061 118.284L27.2241 115.526ZM173.075 88.9999H195.186L195.169 92.0162C194.924 137.283 193.665 169.755 185.052 193.414L193.377 185.09L195.435 186.512C213.174 198.772 235.73 216.589 246.859 228.248L248.818 230.3L233.244 246.935L231.055 244.585C220.604 233.37 198.488 215.09 181.356 202.106C170.728 223.632 152.112 236.569 120.459 245.683L117.794 246.45L116.82 243.853C116.164 242.104 114.824 239.735 113.161 237.318C111.513 234.924 109.677 232.67 108.148 231.141L104.485 227.478L109.485 226.124C124.906 221.948 136.38 217.048 144.998 210.779C153.556 204.554 159.417 196.893 163.491 186.964C167.596 176.96 169.91 164.595 171.228 148.952C172.545 133.316 172.854 114.609 173.05 91.974L173.075 88.9999ZM178.919 200.26C179.135 199.813 179.348 199.363 179.557 198.909C190.145 175.937 191.833 143.237 192.151 94.9999C192.158 94.0065 192.164 93.0065 192.169 91.9999H176.049C175.283 180.872 172.761 211.047 113.54 228.107C112.468 228.415 111.378 228.72 110.269 229.02C110.987 229.737 111.751 230.584 112.525 231.512C115.397 234.955 118.401 239.523 119.629 242.8C151.032 233.758 168.825 221.098 178.919 200.26ZM6.61184 168.123C5.98512 168.941 5.35085 169.741 4.7094 170.52C5.52124 170.926 6.4321 171.421 7.3956 171.974C10.3373 173.663 13.7697 175.895 16.3729 177.789C17.2861 178.453 18.0973 179.076 18.7494 179.62C19.3477 178.836 19.9437 178.031 20.5368 177.205C30.279 163.637 39.2394 144.506 44.9537 125.311C45.2405 124.347 45.5192 123.383 45.7894 122.42L29.4094 119.04C24.7596 136.905 16.6545 155 6.61184 168.123ZM233.249 242.54L244.689 230.32C233.769 218.88 211.409 201.2 193.729 188.98L183.069 199.64C183.862 200.24 184.665 200.852 185.478 201.474C201.195 213.507 220.435 229.433 231.171 240.37C231.905 241.118 232.599 241.842 233.249 242.54ZM352.969 71.0599H397.974C398.078 70.5455 398.183 70.0282 398.288 69.5086C399.155 65.242 400.053 60.819 400.797 56.5199H332.429V52.7766L313.944 68.1287L312.109 65.2875C304.371 53.3059 285.518 36.4165 268.748 25.0642L265.414 22.8074L284.534 7.16346L286.375 8.37176C303.159 19.3863 322.992 36.2596 332.393 49.1524L332.429 49.2017V34.3999H374.682C371.189 27.4107 365.933 19.3095 360.654 12.7632L358.073 9.56194L378.582 1.64595L379.964 3.07251C388.245 11.6206 396.581 24.1986 399.878 33.5415L400.181 34.3999H431.053C437.037 25.1957 444.229 11.9345 448.128 3.16149L449.158 0.843262L474.655 7.38958L472.718 10.8007C468.235 18.6998 463.05 27.132 458.149 34.3999H502.489V56.5199H427.547C425.881 61.4488 424.114 66.4407 422.421 71.0599H482.209V199.78H352.969V71.0599ZM479.209 74.0599V196.78H355.969V74.0599H400.429C400.685 72.7799 400.951 71.4697 401.222 70.1391C402.123 65.7026 403.069 61.0402 403.841 56.5199C404.014 55.5115 404.177 54.5101 404.329 53.5199H335.429V37.3999H379.369C378.963 36.431 378.512 35.4283 378.021 34.3999C374.833 27.7238 369.973 19.9654 364.925 13.3486C364.282 12.5056 363.636 11.6812 362.989 10.8799L377.809 5.1599C385.827 13.4361 393.844 25.5712 397 34.3999C397.016 34.4467 397.033 34.4933 397.049 34.5399L390.289 37.3999H432.669C438.909 28.0399 446.709 13.7399 450.869 4.37991L470.109 9.31991C469.602 10.214 469.086 11.1148 468.562 12.0198C464.125 19.6832 459.149 27.6501 454.521 34.3999C453.815 35.4301 453.116 36.4319 452.429 37.3999H499.489V53.5199H425.389C423.415 59.4417 421.257 65.5484 419.225 71.0599C418.848 72.082 418.475 73.0837 418.109 74.0599H479.209ZM325.689 103.3V188.344C337.252 205.637 358.479 214.096 387.548 215.362C415.79 216.398 473.396 215.619 503.705 213.547L508.674 213.207L506.651 217.758C504.597 222.38 501.366 231.154 500.644 236.688L500.316 239.205L497.779 239.298C469.393 240.34 416.016 240.861 387.32 239.818L387.314 239.818C354.274 238.547 330.739 229.65 313.549 210.387C301.751 220.686 289.464 231.215 276.48 241.75L273.654 244.042L260.25 218.908L262.551 217.407C274.067 209.897 288.062 199.434 300.709 188.879V127.5H264.569V103.3H325.689ZM303.709 190.28C290.709 201.2 276.149 212.12 264.189 219.92L274.589 239.42C275.382 238.777 276.173 238.133 276.96 237.49C289.039 227.627 300.523 217.776 311.59 208.115C312.345 207.456 313.098 206.797 313.849 206.14C313.849 206.14 313.849 206.14 313.849 206.14C314.492 206.914 315.145 207.671 315.808 208.413C332.293 226.871 354.935 235.57 387.429 236.82C416.029 237.86 469.329 237.34 497.669 236.3C498.301 231.456 500.639 224.564 502.61 219.633C503.072 218.477 503.514 217.429 503.909 216.54C502.823 216.614 501.701 216.687 500.547 216.758C469.403 218.673 414.757 219.363 387.429 218.36C357.529 217.06 334.909 208.22 322.689 189.24V106.3H267.569V124.5H303.709V190.28ZM377.169 107.46H457.229V91.8799H377.169V107.46ZM377.169 143.08H457.229V127.5H377.169V143.08ZM377.169 178.96H457.229V163.12H377.169V178.96ZM284.729 10.8799C301.369 21.7999 320.869 38.4399 329.969 50.9199L314.629 63.6599C314.107 62.8507 313.537 62.0219 312.924 61.1763C304.561 49.6362 288.132 34.9605 273.001 24.3521C272.139 23.7477 271.281 23.1565 270.429 22.5799L284.729 10.8799ZM460.229 110.46V88.8799H374.169V110.46H460.229ZM460.229 146.08V124.5H374.169V146.08H460.229ZM460.229 181.96V160.12H374.169V181.96H460.229Z" fill="#BC9244"/>
</svg>
