<svg width="584" height="204" viewBox="0 0 584 204" fill="none" xmlns="http://www.w3.org/2000/svg">
<path d="M17.9009 201L15.7796 203.121L16.6583 204H17.9009V201ZM54.0409 201V204H55.2836L56.1623 203.121L54.0409 201ZM68.8609 186.18L70.9823 188.301L71.8609 187.423V186.18H68.8609ZM68.8609 128.46H71.8609V125.46H68.8609V128.46ZM49.6209 128.46V125.46H46.6209V128.46H49.6209ZM49.6209 177.86L51.7423 179.981L52.6209 179.103V177.86H49.6209ZM43.1209 184.36V187.36H44.3636L45.2423 186.481L43.1209 184.36ZM28.8209 184.36L26.6996 186.481L27.5783 187.36H28.8209V184.36ZM22.3209 177.86H19.3209V179.103L20.1996 179.981L22.3209 177.86ZM22.3209 26.28L20.1584 24.2007L19.3209 25.0717V26.28H22.3209ZM28.8209 19.52V16.52H27.5437L26.6584 17.4407L28.8209 19.52ZM43.1209 19.52L45.2834 17.4407L44.3982 16.52H43.1209V19.52ZM49.6209 26.28H52.6209V25.0717L51.7834 24.2007L49.6209 26.28ZM49.6209 71.78H46.6209V74.78H49.6209V71.78ZM68.8609 71.78V74.78H71.8609V71.78H68.8609ZM68.8609 18.22H71.8609V16.9774L70.9823 16.0987L68.8609 18.22ZM54.0409 3.39999L56.1623 1.27867L55.2836 0.399987H54.0409V3.39999ZM17.9009 3.39999V0.399987H16.6583L15.7796 1.27867L17.9009 3.39999ZM3.08094 18.22L0.959617 16.0987L0.0809376 16.9774V18.22H3.08094ZM3.08094 186.18H0.0809376V187.423L0.959617 188.301L3.08094 186.18ZM17.9009 204H54.0409V198H17.9009V204ZM56.1623 203.121L70.9823 188.301L66.7396 184.059L51.9196 198.879L56.1623 203.121ZM71.8609 186.18V128.46H65.8609V186.18H71.8609ZM68.8609 125.46H49.6209V131.46H68.8609V125.46ZM46.6209 128.46V177.86H52.6209V128.46H46.6209ZM47.4996 175.739L40.9996 182.239L45.2423 186.481L51.7423 179.981L47.4996 175.739ZM43.1209 181.36H28.8209V187.36H43.1209V181.36ZM30.9423 182.239L24.4423 175.739L20.1996 179.981L26.6996 186.481L30.9423 182.239ZM25.3209 177.86V26.28H19.3209V177.86H25.3209ZM24.4834 28.3593L30.9834 21.5993L26.6584 17.4407L20.1584 24.2007L24.4834 28.3593ZM28.8209 22.52H43.1209V16.52H28.8209V22.52ZM40.9584 21.5993L47.4584 28.3593L51.7834 24.2007L45.2834 17.4407L40.9584 21.5993ZM46.6209 26.28V71.78H52.6209V26.28H46.6209ZM49.6209 74.78H68.8609V68.78H49.6209V74.78ZM71.8609 71.78V18.22H65.8609V71.78H71.8609ZM70.9823 16.0987L56.1623 1.27867L51.9196 5.52131L66.7396 20.3413L70.9823 16.0987ZM54.0409 0.399987H17.9009V6.39999H54.0409V0.399987ZM15.7796 1.27867L0.959617 16.0987L5.20226 20.3413L20.0223 5.52131L15.7796 1.27867ZM0.0809376 18.22V186.18H6.08094V18.22H0.0809376ZM0.959617 188.301L15.7796 203.121L20.0223 198.879L5.20226 184.059L0.959617 188.301ZM87.6561 201H84.6561V204H87.6561V201ZM106.896 201V204H109.896V201H106.896ZM106.896 110V107H103.896V110H106.896ZM139.136 110H142.136V107H139.136V110ZM139.136 201H136.136V204H139.136V201ZM158.376 201V204H161.376V201H158.376ZM158.376 3.39999H161.376V0.399987H158.376V3.39999ZM139.136 3.39999V0.399987H136.136V3.39999H139.136ZM139.136 93.1V96.1H142.136V93.1H139.136ZM106.896 93.1H103.896V96.1H106.896V93.1ZM106.896 3.39999H109.896V0.399987H106.896V3.39999ZM87.6561 3.39999V0.399987H84.6561V3.39999H87.6561ZM87.6561 204H106.896V198H87.6561V204ZM109.896 201V110H103.896V201H109.896ZM106.896 113H139.136V107H106.896V113ZM136.136 110V201H142.136V110H136.136ZM139.136 204H158.376V198H139.136V204ZM161.376 201V3.39999H155.376V201H161.376ZM158.376 0.399987H139.136V6.39999H158.376V0.399987ZM136.136 3.39999V93.1H142.136V3.39999H136.136ZM139.136 90.1H106.896V96.1H139.136V90.1ZM109.896 93.1V3.39999H103.896V93.1H109.896ZM106.896 0.399987H87.6561V6.39999H106.896V0.399987ZM84.6561 3.39999V201H90.6561V3.39999H84.6561ZM231.31 201L228.33 201.343L228.636 204H231.31V201ZM251.33 201V204H254.751L254.305 200.609L251.33 201ZM225.33 3.39999L228.305 3.00862L227.961 0.399987H225.33V3.39999ZM197.77 3.39999V0.399987H195.132L194.795 3.01632L197.77 3.39999ZM172.29 201L169.315 200.616L168.878 204H172.29V201ZM191.27 201V204H193.945L194.25 201.343L191.27 201ZM196.21 158.1V155.1H193.536L193.23 157.757L196.21 158.1ZM226.37 158.1L229.35 157.757L229.045 155.1H226.37V158.1ZM198.03 141.46L195.049 141.124L194.673 144.46H198.03V141.46ZM211.29 23.68L214.271 23.3444L208.309 23.3444L211.29 23.68ZM224.55 141.46V144.46H227.907L227.531 141.124L224.55 141.46ZM231.31 204H251.33V198H231.31V204ZM254.305 200.609L228.305 3.00862L222.356 3.79135L248.356 201.391L254.305 200.609ZM225.33 0.399987H197.77V6.39999H225.33V0.399987ZM194.795 3.01632L169.315 200.616L175.266 201.384L200.746 3.78365L194.795 3.01632ZM172.29 204H191.27V198H172.29V204ZM194.25 201.343L199.19 158.443L193.23 157.757L188.29 200.657L194.25 201.343ZM196.21 161.1H226.37V155.1H196.21V161.1ZM223.39 158.443L228.33 201.343L234.29 200.657L229.35 157.757L223.39 158.443ZM201.011 141.796L214.271 24.0156L208.309 23.3444L195.049 141.124L201.011 141.796ZM208.309 24.0156L221.569 141.796L227.531 141.124L214.271 23.3444L208.309 24.0156ZM224.55 138.46H198.03V144.46H224.55V138.46ZM265.39 201H262.39V204H265.39V201ZM282.81 201V204H285.81V201H282.81ZM282.81 50.72L285.736 50.0569L279.81 50.72H282.81ZM316.87 201L313.945 201.663L314.474 204H316.87V201ZM338.19 201V204H341.19V201H338.19ZM338.19 3.39999H341.19V0.399987H338.19V3.39999ZM320.51 3.39999V0.399987H317.51V3.39999H320.51ZM320.51 155.24L317.582 155.892L323.51 155.24H320.51ZM286.71 3.39999L289.639 2.74813L289.116 0.399987H286.71V3.39999ZM265.39 3.39999V0.399987H262.39V3.39999H265.39ZM265.39 204H282.81V198H265.39V204ZM285.81 201V50.72H279.81V201H285.81ZM279.885 51.3831L313.945 201.663L319.796 200.337L285.736 50.0569L279.885 51.3831ZM316.87 204H338.19V198H316.87V204ZM341.19 201V3.39999H335.19V201H341.19ZM338.19 0.399987H320.51V6.39999H338.19V0.399987ZM317.51 3.39999V155.24H323.51V3.39999H317.51ZM323.439 154.588L289.639 2.74813L283.782 4.05184L317.582 155.892L323.439 154.588ZM286.71 0.399987H265.39V6.39999H286.71V0.399987ZM262.39 3.39999V201H268.39V3.39999H262.39ZM359.59 201H356.59V204H359.59V201ZM377.01 201V204H380.01V201H377.01ZM377.01 50.72L379.935 50.0569L374.01 50.72H377.01ZM411.07 201L408.144 201.663L408.674 204H411.07V201ZM432.39 201V204H435.39V201H432.39ZM432.39 3.39999H435.39V0.399987H432.39V3.39999ZM414.71 3.39999V0.399987H411.71V3.39999H414.71ZM414.71 155.24L411.781 155.892L417.71 155.24H414.71ZM380.91 3.39999L383.838 2.74813L383.315 0.399987H380.91V3.39999ZM359.59 3.39999V0.399987H356.59V3.39999H359.59ZM359.59 204H377.01V198H359.59V204ZM380.01 201V50.72H374.01V201H380.01ZM374.084 51.3831L408.144 201.663L413.995 200.337L379.935 50.0569L374.084 51.3831ZM411.07 204H432.39V198H411.07V204ZM435.39 201V3.39999H429.39V201H435.39ZM432.39 0.399987H414.71V6.39999H432.39V0.399987ZM411.71 3.39999V155.24H417.71V3.39999H411.71ZM417.638 154.588L383.838 2.74813L377.981 4.05184L411.781 155.892L417.638 154.588ZM380.91 0.399987H359.59V6.39999H380.91V0.399987ZM356.59 3.39999V201H362.59V3.39999H356.59ZM453.789 201H450.789V204H453.789V201ZM510.729 201V204H513.729V201H510.729ZM510.729 184.36H513.729V181.36H510.729V184.36ZM473.029 184.36H470.029V187.36H473.029V184.36ZM473.029 108.96V105.96H470.029V108.96H473.029ZM505.529 108.96V111.96H508.529V108.96H505.529ZM505.529 92.58H508.529V89.58H505.529V92.58ZM473.029 92.58H470.029V95.58H473.029V92.58ZM473.029 20.04V17.04H470.029V20.04H473.029ZM510.209 20.04V23.04H513.209V20.04H510.209ZM510.209 3.39999H513.209V0.399987H510.209V3.39999ZM453.789 3.39999V0.399987H450.789V3.39999H453.789ZM453.789 204H510.729V198H453.789V204ZM513.729 201V184.36H507.729V201H513.729ZM510.729 181.36H473.029V187.36H510.729V181.36ZM476.029 184.36V108.96H470.029V184.36H476.029ZM473.029 111.96H505.529V105.96H473.029V111.96ZM508.529 108.96V92.58H502.529V108.96H508.529ZM505.529 89.58H473.029V95.58H505.529V89.58ZM476.029 92.58V20.04H470.029V92.58H476.029ZM473.029 23.04H510.209V17.04H473.029V23.04ZM513.209 20.04V3.39999H507.209V20.04H513.209ZM510.209 0.399987H453.789V6.39999H510.209V0.399987ZM450.789 3.39999V201H456.789V3.39999H450.789ZM526.66 201H523.66V204H526.66V201ZM581 201V204H584V201H581ZM581 184.36H584V181.36H581V184.36ZM545.9 184.36H542.9V187.36H545.9V184.36ZM545.9 3.39999H548.9V0.399987H545.9V3.39999ZM526.66 3.39999V0.399987H523.66V3.39999H526.66ZM526.66 204H581V198H526.66V204ZM584 201V184.36H578V201H584ZM581 181.36H545.9V187.36H581V181.36ZM548.9 184.36V3.39999H542.9V184.36H548.9ZM545.9 0.399987H526.66V6.39999H545.9V0.399987ZM523.66 3.39999V201H529.66V3.39999H523.66Z" fill="#BC9244"/>
</svg>
