<svg width="450" height="240" viewBox="0 0 450 240" fill="none" xmlns="http://www.w3.org/2000/svg">
<path fill-rule="evenodd" clip-rule="evenodd" d="M74.6904 11.6V46.44H118.37V63.86H74.4304V74.52C74.4304 110.646 92.3494 147.508 121.986 165.311C122.851 165.83 123.726 166.333 124.61 166.82L112.39 182.68C90.9137 170.721 75.1642 149.37 66.2169 123.788C65.6323 122.116 65.0767 120.426 64.5504 118.72C64.0824 120.441 63.5863 122.15 63.0625 123.845C54.5661 151.338 38.7818 175.145 17.2304 187.88L4.49041 171.76C5.35912 171.25 6.21772 170.724 7.0661 170.181C36.9417 151.062 54.1504 111.685 54.1504 74.52V63.86H10.2104V46.44H54.1504V11.6H74.6904ZM51.1504 43.44V8.60002H77.6904V43.44H121.37V66.86H77.4304V74.52C77.4304 110.827 95.9943 147.657 126.056 164.191L129.123 165.878L113.189 186.559L110.931 185.301C89.7182 173.489 74.056 152.941 64.7271 128.452C55.8304 154.868 40.1387 177.828 18.7566 190.463L16.5012 191.796L0 170.917L2.97216 169.173C33.2795 151.389 51.1504 111.979 51.1504 74.52V66.86H7.21041V43.44H51.1504ZM181.93 0.0200195H208.47V239.24H181.93V117.82H157.25V227.8H131.23V5.22001H157.25V94.14H181.93V0.0200195ZM184.93 3.02002H205.47V236.24H184.93V114.82H154.25V224.8H134.23V8.22001H154.25V97.14H184.93V3.02002ZM413.31 126.66V62.18H347.27V39.02H413.31V0.0200195H440.89V126.66H413.31ZM416.31 3.02002H437.89V123.66H416.31V59.18H350.27V42.02H416.31V3.02002ZM383.154 83.4477L386.976 107.075L384.118 107.626C347.479 114.692 315.819 116.78 277.21 116.78H256.27V11.2H283.59V92.835C317.806 92.7191 347.501 90.5785 380.102 84.0583L383.154 83.4477ZM283.59 95.835C282.594 95.8384 281.594 95.84 280.59 95.84V14.2H259.27V113.78H277.21C315.69 113.78 347.15 111.7 383.55 104.68L380.69 87C379.706 87.1969 378.724 87.3898 377.745 87.5788C346.047 93.6965 316.912 95.7225 283.59 95.835ZM446.21 215.96V233.12H288.13V174.36H416.57V151.74H287.61V134.58H437.89V190.74H309.19V215.96H446.21ZM312.19 212.96H449.21V236.12H285.13V171.36H413.57V154.74H284.61V131.58H440.89V193.74H312.19V212.96Z" fill="#BC9244"/>
</svg>
