<svg width="419" height="204" viewBox="0 0 419 204" fill="none" xmlns="http://www.w3.org/2000/svg">
<path fill-rule="evenodd" clip-rule="evenodd" d="M56.4812 204L41.4681 109.87L25.3806 152.151V204H0.140625V0.399902H25.3806V96.9498L56.5977 0.399902H82.6177L56.687 69.1845L82.1728 201.295L108.078 0.399902H140.907L167.696 204H141.581L136.641 161.1H111.83L106.89 204H56.4812ZM109.156 158.1H139.316L144.256 201H164.276L138.276 3.3999H110.716L85.2356 201H104.216L109.156 158.1ZM53.5806 68.9199L78.2806 3.3999H58.7806L22.3806 115.98V3.3999H3.14062V201H22.3806V151.6L42.6606 98.2999L59.0406 201H79.0606L53.5806 68.9199ZM110.976 141.46H137.496L124.236 23.6799L110.976 141.46ZM114.332 138.46H134.139L124.236 50.4953L114.332 138.46ZM175.336 204V0.399902H202.062L230.456 127.956V0.399902H254.136V204H227.42L198.756 77.5289V204H175.336ZM195.756 50.7199L229.816 201H251.136V3.3999H233.456V155.24L199.656 3.3999H178.336V201H195.756V50.7199ZM321.601 204L316.661 161.1H291.85L286.91 204H261.843L288.097 0.399902H320.926L347.716 204H321.601ZM289.175 158.1H319.335L324.275 201H344.295L318.295 3.3999H290.735L265.255 201H284.235L289.175 158.1ZM290.995 141.46H317.515L304.255 23.6799L290.995 141.46ZM294.352 138.46H314.158L304.255 50.4953L294.352 138.46ZM406.455 95.4399L379.675 104.8V184.36H415.035V201H360.435V111.56L348.995 115.46V97.2599L360.435 93.3599V3.3999H379.675V86.5999L406.455 77.2399V95.4399ZM382.675 82.3734L409.455 73.0134V97.5693L382.675 106.929V181.36H418.035V204H357.435V115.752L345.995 119.652V95.1131L357.435 91.2131V0.399902H382.675V82.3734Z" fill="#BC9244"/>
</svg>
