<svg width="727" height="195" viewBox="0 0 727 195" fill="none" xmlns="http://www.w3.org/2000/svg">
<path fill-rule="evenodd" clip-rule="evenodd" d="M145.11 192H109.036L29.4 102.748V192H0V0.359863H29.4V85.5683L106.974 0.359863H141.523L58.2323 93.5917L145.11 192ZM54.22 93.5799L134.82 3.35986H108.3L26.4 93.3199V3.35986H3V189H26.4V94.8799L110.38 189H138.46L54.22 93.5799ZM266.303 192H244.26L240.421 174.837C235.071 180.87 229.398 185.543 223.385 188.781C216.02 192.747 206.279 194.6 194.403 194.6C181.208 194.6 170.027 191.155 161.081 184.072L161.066 184.06L161.051 184.048C151.817 176.546 147.463 165.061 147.463 150.26C147.463 135.465 153.362 123.855 165.138 115.811C176.766 107.696 194.273 103.502 217.186 102.801C217.188 102.801 217.19 102.801 217.191 102.801L237.943 102.117V96.6999C237.943 85.3569 235.46 78.3932 231.4 74.7536C227.096 70.8945 220.799 68.7599 212.083 68.7599C205.118 68.7599 198.514 69.8368 192.254 71.9784L192.22 71.9899L192.186 72.0006C185.726 74.0405 179.71 76.4147 174.131 79.1193L171.256 80.5135L162.008 57.9065L164.371 56.6233C170.679 53.199 178.09 50.3503 186.571 48.0517C195.166 45.5478 204.107 44.2999 213.383 44.2999C230.729 44.2999 244.176 48.0945 253.108 56.2665C262.121 64.513 266.303 77.3685 266.303 94.0999V192ZM240.943 105.02L217.283 105.8C194.576 106.493 177.763 110.653 166.843 118.28C155.923 125.733 150.463 136.393 150.463 150.26C150.463 164.473 154.623 174.96 162.943 181.72C171.263 188.307 181.749 191.6 194.403 191.6C206.016 191.6 215.203 189.78 221.963 186.14C228.132 182.818 234.013 177.835 239.605 171.192C240.064 170.647 240.521 170.091 240.977 169.523C241.052 169.429 241.127 169.335 241.203 169.24H242.243L246.663 189H263.303V94.0999C263.303 77.8065 259.229 65.9332 251.083 58.4799C242.936 51.0265 230.369 47.2999 213.383 47.2999C204.369 47.2999 195.703 48.5132 187.383 50.9399C179.063 53.1932 171.869 55.9665 165.803 59.2599L172.823 76.4199C173.718 75.9856 174.625 75.5599 175.541 75.1426C180.48 72.8951 185.727 70.8942 191.283 69.1399C197.869 66.8865 204.803 65.7599 212.083 65.7599C221.269 65.7599 228.376 68.0132 233.403 72.5199C238.429 77.0265 240.943 85.0865 240.943 96.6999V105.02ZM220.263 124.657C203.016 125.347 191.761 128.112 185.767 132.406C180.027 136.642 177.123 142.551 177.123 150.52C177.123 157.697 179.245 162.392 182.964 165.296C187.186 168.454 192.659 170.14 199.603 170.14C210.628 170.14 219.629 167.111 226.812 161.207C233.896 155.355 237.683 146.28 237.683 133.36V123.996L220.263 124.657ZM220.143 121.66C202.809 122.353 190.763 125.127 184.003 129.98C177.416 134.833 174.123 141.68 174.123 150.52C174.123 158.32 176.463 164.04 181.143 167.68C185.996 171.32 192.149 173.14 199.603 173.14C211.216 173.14 220.923 169.933 228.723 163.52C236.696 156.933 240.683 146.88 240.683 133.36V120.88L220.143 121.66ZM332.225 46.6399V104.62H401.885V46.6399H430.765V192H401.885V129.86H332.225V192H303.345V46.6399H332.225ZM329.225 126.86H404.885V189H427.765V49.6399H404.885V107.62H329.225V49.6399H306.345V189H329.225V126.86ZM577.592 192H555.549L551.71 174.837C546.36 180.87 540.687 185.543 534.674 188.781C527.309 192.747 517.568 194.6 505.692 194.6C492.497 194.6 481.316 191.155 472.37 184.072L472.355 184.06L472.34 184.048C463.106 176.546 458.752 165.061 458.752 150.26C458.752 135.465 464.651 123.855 476.427 115.811C488.055 107.696 505.562 103.502 528.476 102.801C528.477 102.801 528.479 102.801 528.48 102.801L549.232 102.117V96.6999C549.232 85.3569 546.749 78.3932 542.689 74.7536C538.385 70.8945 532.088 68.7599 523.372 68.7599C516.407 68.7599 509.803 69.8368 503.543 71.9784L503.509 71.9899L503.475 72.0006C497.016 74.0405 490.999 76.4147 485.421 79.1193L482.545 80.5135L473.297 57.9065L475.66 56.6233C481.968 53.1991 489.379 50.3504 497.859 48.0519C506.454 45.5478 515.395 44.2999 524.672 44.2999C542.018 44.2999 555.465 48.0945 564.397 56.2665C573.41 64.513 577.592 77.3685 577.592 94.0999V192ZM498.672 50.9399C490.352 53.1932 483.158 55.9665 477.092 59.2599L484.112 76.4199C485.007 75.9856 485.914 75.5599 486.831 75.1426C491.769 72.8951 497.016 70.8942 502.572 69.1399C509.158 66.8865 516.092 65.7599 523.372 65.7599C532.558 65.7599 539.665 68.0132 544.692 72.5199C549.718 77.0265 552.232 85.0865 552.232 96.6999V105.019L528.572 105.8C505.865 106.493 489.052 110.653 478.132 118.28C467.212 125.733 461.752 136.393 461.752 150.26C461.752 164.473 465.912 174.96 474.232 181.72C482.552 188.307 493.038 191.6 505.692 191.6C517.305 191.6 526.492 189.78 533.252 186.14C539.421 182.818 545.302 177.835 550.894 171.192C551.353 170.647 551.81 170.091 552.266 169.523C552.341 169.429 552.416 169.335 552.492 169.24H553.532L557.952 189H574.592V94.0999C574.592 77.8065 570.518 65.9332 562.372 58.4799C554.225 51.0265 541.658 47.2999 524.672 47.2999C515.658 47.2999 506.992 48.5132 498.672 50.9399ZM531.552 124.657C514.305 125.347 503.05 128.112 497.056 132.406C491.316 136.642 488.412 142.551 488.412 150.52C488.412 157.697 490.534 162.392 494.253 165.295C498.474 168.454 503.947 170.14 510.892 170.14C521.917 170.14 530.918 167.111 538.101 161.207C545.185 155.355 548.972 146.28 548.972 133.36V123.996L531.552 124.657ZM531.432 121.66C514.098 122.353 502.052 125.127 495.292 129.98C488.705 134.833 485.412 141.68 485.412 150.52C485.412 158.32 487.752 164.04 492.432 167.68C497.285 171.32 503.438 173.14 510.892 173.14C522.505 173.14 532.212 169.933 540.012 163.52C547.985 156.933 551.972 146.88 551.972 133.36V120.88L531.432 121.66ZM726.714 192H697.574V71.6199H662.268C660.027 99.7133 656.965 122.604 653.063 140.248L653.062 140.254C649.039 158.27 643.537 171.814 636.333 180.503C629.219 189.294 620.154 193.82 609.314 193.82C606.94 193.82 604.568 193.64 602.199 193.281C599.904 193.08 597.809 192.581 596.012 191.683L594.354 190.854V167.678L598.303 168.994C599.153 169.277 600.102 169.499 601.158 169.65C602.232 169.803 603.304 169.88 604.374 169.88C607.814 169.88 611.218 168.105 614.581 163.608C617.986 159.056 621.113 151.99 623.844 142.176L623.847 142.164L623.85 142.152C629.479 122.537 633.797 91.6849 636.741 49.4314L636.936 46.6399H726.714V192ZM602.554 190.3C604.807 190.647 607.061 190.82 609.314 190.82C619.194 190.82 627.427 186.747 634.014 178.6C640.774 170.453 646.147 157.453 650.134 139.6C654.121 121.573 657.241 97.9132 659.494 68.6199H700.574V189H723.714V49.6399H639.734C636.787 91.9332 632.454 123.047 626.734 142.98C621.187 162.913 613.734 172.88 604.374 172.88C603.161 172.88 601.947 172.793 600.734 172.62C600.606 172.602 600.48 172.582 600.354 172.562C599.284 172.391 598.284 172.15 597.354 171.84V189C598.741 189.693 600.474 190.127 602.554 190.3Z" fill="#BC9244"/>
</svg>
